M48
; DRILL file {KiCad 6.0.5+dfsg-1} date Sun 26 Jun 2022 16:36:43 BST
; FORMAT={-:-/ absolute / metric / decimal}
; #@! TF.CreationDate,2022-06-26T16:36:43+01:00
; #@! TF.GenerationSoftware,Kicad,Pcbnew,6.0.5+dfsg-1
; #@! TF.FileFunction,Plated,1,2,PTH
FMAT,2
METRIC
; #@! TA.AperFunction,Plated,PTH,ViaDrill
T1C0.400
; #@! TA.AperFunction,Plated,PTH,ComponentDrill
T2C0.800
; #@! TA.AperFunction,Plated,PTH,ComponentDrill
T3C1.000
; #@! TA.AperFunction,Plated,PTH,ComponentDrill
T4C1.100
; #@! TA.AperFunction,Plated,PTH,ComponentDrill
T5C1.200
; #@! TA.AperFunction,Plated,PTH,ComponentDrill
T6C1.300
; #@! TA.AperFunction,Plated,PTH,ComponentDrill
T7C1.520
; #@! TA.AperFunction,Plated,PTH,ComponentDrill
T8C1.850
; #@! TA.AperFunction,Plated,PTH,ComponentDrill
T9C2.800
%
G90
G05
T1
X136.6Y-78.2
X137.2Y-79.3
X145.3Y-79.3
X148.2Y-97.9
X150.5Y-125.4
X152.0Y-119.4
X152.3Y-97.9
X153.5Y-125.4
X155.2Y-79.3
X156.4Y-97.9
X161.7Y-79.3
X162.2Y-107.1
X179.3Y-72.1
X179.3Y-77.8
X179.3Y-83.1
X181.4Y-72.1
X181.4Y-83.1
X183.5Y-72.1
X183.5Y-77.7
X183.5Y-83.1
X185.6Y-72.0
X185.6Y-83.1
X186.4Y-96.6
X186.7Y-77.7
X186.7Y-78.8
X187.7Y-91.9
X191.4Y-87.8
X191.4Y-96.0
X195.4Y-84.1
X195.6Y-89.3
X195.6Y-93.1
X196.67Y-90.33
X198.7Y-85.5
T2
X109.195Y-88.4
X111.695Y-88.4
X117.0Y-80.795
X117.0Y-83.295
X128.255Y-73.28
X128.255Y-88.52
X128.875Y-121.68
X128.875Y-129.3
X130.795Y-73.28
X130.795Y-88.52
X131.415Y-121.68
X131.415Y-129.3
X133.335Y-73.28
X133.335Y-88.52
X133.955Y-121.68
X133.955Y-129.3
X134.45Y-95.29
X134.45Y-97.83
X134.45Y-100.37
X134.45Y-102.91
X135.875Y-73.28
X135.875Y-88.52
X136.495Y-121.68
X136.495Y-129.3
X138.415Y-73.28
X138.415Y-88.52
X139.035Y-121.68
X139.035Y-129.3
X140.955Y-73.28
X140.955Y-88.52
X141.575Y-121.68
X141.575Y-129.3
X143.495Y-73.28
X143.495Y-88.52
X144.115Y-121.68
X144.115Y-129.3
X146.035Y-73.28
X146.035Y-88.52
X148.575Y-73.28
X148.575Y-88.52
X149.9Y-59.295
X149.9Y-61.795
X151.115Y-73.28
X151.115Y-88.52
X153.655Y-73.28
X153.655Y-88.52
X156.195Y-73.28
X156.195Y-88.52
X158.735Y-73.28
X158.735Y-88.52
X159.875Y-121.68
X159.875Y-129.3
X161.275Y-73.28
X161.275Y-88.52
X162.415Y-121.68
X162.415Y-129.3
X163.815Y-73.28
X163.815Y-88.52
X164.955Y-121.68
X164.955Y-129.3
X165.93Y-95.5
X165.93Y-103.12
X166.355Y-73.28
X166.355Y-88.52
X167.495Y-121.68
X167.495Y-129.3
X168.47Y-95.5
X168.47Y-103.12
X168.895Y-73.28
X168.895Y-88.52
X170.035Y-121.68
X170.035Y-129.3
X171.01Y-95.5
X171.01Y-103.12
X171.435Y-73.28
X171.435Y-88.52
X172.575Y-121.68
X172.575Y-129.3
X173.55Y-95.5
X173.55Y-103.12
X173.975Y-73.28
X173.975Y-88.52
X175.115Y-121.68
X175.115Y-129.3
X176.515Y-73.28
X176.515Y-88.52
X189.3Y-67.0
X189.3Y-70.1
X189.3Y-73.2
X189.3Y-76.3
X189.3Y-79.4
X199.46Y-67.0
X199.46Y-70.1
X199.46Y-73.2
X199.46Y-76.3
X199.46Y-79.4
T3
X108.1Y-93.5
X108.1Y-96.8
X108.1Y-100.1
X108.2Y-103.4
X112.8Y-110.15
X115.3Y-110.15
X117.8Y-110.15
X150.1Y-67.3
X180.3Y-85.6
X180.4Y-98.8
X180.4Y-102.5
X184.2Y-98.9
X186.2Y-110.15
X188.7Y-110.15
X191.2Y-110.15
X195.9Y-98.8
X196.0Y-102.5
X199.5Y-98.8
X199.5Y-102.5
T4
X105.36Y-82.545
X107.9Y-82.545
X110.44Y-82.545
X134.25Y-110.25
X134.25Y-114.75
X140.75Y-110.25
X140.75Y-114.75
X163.25Y-110.25
X163.25Y-114.75
X169.75Y-110.25
X169.75Y-114.75
T5
X157.76Y-60.395
X157.76Y-67.395
X160.3Y-60.395
X160.3Y-67.395
X162.84Y-60.395
X162.84Y-67.395
X178.26Y-60.395
X178.26Y-67.395
X180.8Y-60.395
X180.8Y-67.395
X183.34Y-60.395
X183.34Y-67.395
T6
X146.1Y-107.845
X146.1Y-117.245
X147.5Y-109.895
X147.5Y-115.195
X150.5Y-109.895
X150.5Y-115.195
X153.5Y-109.895
X153.5Y-115.195
X156.5Y-109.895
X156.5Y-115.195
X157.9Y-107.845
X157.9Y-117.245
T7
X128.98Y-61.0
X134.06Y-61.0
X139.14Y-61.0
X144.22Y-61.0
T8
X113.3Y-60.7
X118.0Y-60.7
X122.7Y-60.7
T9
X108.1Y-71.3
X113.1Y-71.3
X116.6Y-71.3
X121.6Y-71.3
T0
M30
