%TF.GenerationSoftware,KiCad,Pcbnew,6.0.5+dfsg-1*%
%TF.CreationDate,2022-06-26T16:39:14+01:00*%
%TF.ProjectId,dcc-controller,6463632d-636f-46e7-9472-6f6c6c65722e,rev?*%
%TF.SameCoordinates,Original*%
%TF.FileFunction,Legend,Top*%
%TF.FilePolarity,Positive*%
%FSLAX46Y46*%
G04 Gerber Fmt 4.6, Leading zero omitted, Abs format (unit mm)*
G04 Created by KiCad (PCBNEW 6.0.5+dfsg-1) date 2022-06-26 16:39:14*
%MOMM*%
%LPD*%
G01*
G04 APERTURE LIST*
%ADD10C,0.150000*%
%ADD11C,0.130000*%
%ADD12C,0.120000*%
G04 APERTURE END LIST*
D10*
X103485714Y-122414285D02*
X104295238Y-122414285D01*
X104390476Y-122461904D01*
X104438095Y-122509523D01*
X104485714Y-122604761D01*
X104485714Y-122747619D01*
X104438095Y-122842857D01*
X104104761Y-122414285D02*
X104152380Y-122509523D01*
X104152380Y-122700000D01*
X104104761Y-122795238D01*
X104057142Y-122842857D01*
X103961904Y-122890476D01*
X103676190Y-122890476D01*
X103580952Y-122842857D01*
X103533333Y-122795238D01*
X103485714Y-122700000D01*
X103485714Y-122509523D01*
X103533333Y-122414285D01*
X104152380Y-121938095D02*
X103485714Y-121938095D01*
X103152380Y-121938095D02*
X103200000Y-121985714D01*
X103247619Y-121938095D01*
X103200000Y-121890476D01*
X103152380Y-121938095D01*
X103247619Y-121938095D01*
X103485714Y-121604761D02*
X103485714Y-121223809D01*
X103152380Y-121461904D02*
X104009523Y-121461904D01*
X104104761Y-121414285D01*
X104152380Y-121319047D01*
X104152380Y-121223809D01*
X104152380Y-120890476D02*
X103152380Y-120890476D01*
X104152380Y-120461904D02*
X103628571Y-120461904D01*
X103533333Y-120509523D01*
X103485714Y-120604761D01*
X103485714Y-120747619D01*
X103533333Y-120842857D01*
X103580952Y-120890476D01*
X103485714Y-119557142D02*
X104152380Y-119557142D01*
X103485714Y-119985714D02*
X104009523Y-119985714D01*
X104104761Y-119938095D01*
X104152380Y-119842857D01*
X104152380Y-119700000D01*
X104104761Y-119604761D01*
X104057142Y-119557142D01*
X104152380Y-119080952D02*
X103152380Y-119080952D01*
X103533333Y-119080952D02*
X103485714Y-118985714D01*
X103485714Y-118795238D01*
X103533333Y-118700000D01*
X103580952Y-118652380D01*
X103676190Y-118604761D01*
X103961904Y-118604761D01*
X104057142Y-118652380D01*
X104104761Y-118700000D01*
X104152380Y-118795238D01*
X104152380Y-118985714D01*
X104104761Y-119080952D01*
X104057142Y-118176190D02*
X104104761Y-118128571D01*
X104152380Y-118176190D01*
X104104761Y-118223809D01*
X104057142Y-118176190D01*
X104152380Y-118176190D01*
X104104761Y-117271428D02*
X104152380Y-117366666D01*
X104152380Y-117557142D01*
X104104761Y-117652380D01*
X104057142Y-117700000D01*
X103961904Y-117747619D01*
X103676190Y-117747619D01*
X103580952Y-117700000D01*
X103533333Y-117652380D01*
X103485714Y-117557142D01*
X103485714Y-117366666D01*
X103533333Y-117271428D01*
X104152380Y-116700000D02*
X104104761Y-116795238D01*
X104057142Y-116842857D01*
X103961904Y-116890476D01*
X103676190Y-116890476D01*
X103580952Y-116842857D01*
X103533333Y-116795238D01*
X103485714Y-116700000D01*
X103485714Y-116557142D01*
X103533333Y-116461904D01*
X103580952Y-116414285D01*
X103676190Y-116366666D01*
X103961904Y-116366666D01*
X104057142Y-116414285D01*
X104104761Y-116461904D01*
X104152380Y-116557142D01*
X104152380Y-116700000D01*
X104152380Y-115938095D02*
X103485714Y-115938095D01*
X103580952Y-115938095D02*
X103533333Y-115890476D01*
X103485714Y-115795238D01*
X103485714Y-115652380D01*
X103533333Y-115557142D01*
X103628571Y-115509523D01*
X104152380Y-115509523D01*
X103628571Y-115509523D02*
X103533333Y-115461904D01*
X103485714Y-115366666D01*
X103485714Y-115223809D01*
X103533333Y-115128571D01*
X103628571Y-115080952D01*
X104152380Y-115080952D01*
X103104761Y-113890476D02*
X104390476Y-114747619D01*
X104104761Y-113604761D02*
X104152380Y-113509523D01*
X104152380Y-113319047D01*
X104104761Y-113223809D01*
X104009523Y-113176190D01*
X103961904Y-113176190D01*
X103866666Y-113223809D01*
X103819047Y-113319047D01*
X103819047Y-113461904D01*
X103771428Y-113557142D01*
X103676190Y-113604761D01*
X103628571Y-113604761D01*
X103533333Y-113557142D01*
X103485714Y-113461904D01*
X103485714Y-113319047D01*
X103533333Y-113223809D01*
X104104761Y-112319047D02*
X104152380Y-112414285D01*
X104152380Y-112604761D01*
X104104761Y-112700000D01*
X104057142Y-112747619D01*
X103961904Y-112795238D01*
X103676190Y-112795238D01*
X103580952Y-112747619D01*
X103533333Y-112700000D01*
X103485714Y-112604761D01*
X103485714Y-112414285D01*
X103533333Y-112319047D01*
X104152380Y-111890476D02*
X103485714Y-111890476D01*
X103152380Y-111890476D02*
X103200000Y-111938095D01*
X103247619Y-111890476D01*
X103200000Y-111842857D01*
X103152380Y-111890476D01*
X103247619Y-111890476D01*
X103485714Y-110985714D02*
X104295238Y-110985714D01*
X104390476Y-111033333D01*
X104438095Y-111080952D01*
X104485714Y-111176190D01*
X104485714Y-111319047D01*
X104438095Y-111414285D01*
X104104761Y-110985714D02*
X104152380Y-111080952D01*
X104152380Y-111271428D01*
X104104761Y-111366666D01*
X104057142Y-111414285D01*
X103961904Y-111461904D01*
X103676190Y-111461904D01*
X103580952Y-111414285D01*
X103533333Y-111366666D01*
X103485714Y-111271428D01*
X103485714Y-111080952D01*
X103533333Y-110985714D01*
X103485714Y-110080952D02*
X104152380Y-110080952D01*
X103485714Y-110509523D02*
X104009523Y-110509523D01*
X104104761Y-110461904D01*
X104152380Y-110366666D01*
X104152380Y-110223809D01*
X104104761Y-110128571D01*
X104057142Y-110080952D01*
X103485714Y-109700000D02*
X104152380Y-109461904D01*
X103485714Y-109223809D02*
X104152380Y-109461904D01*
X104390476Y-109557142D01*
X104438095Y-109604761D01*
X104485714Y-109700000D01*
X104152380Y-108319047D02*
X104152380Y-108890476D01*
X104152380Y-108604761D02*
X103152380Y-108604761D01*
X103295238Y-108700000D01*
X103390476Y-108795238D01*
X103438095Y-108890476D01*
X103152380Y-107461904D02*
X103152380Y-107652380D01*
X103200000Y-107747619D01*
X103247619Y-107795238D01*
X103390476Y-107890476D01*
X103580952Y-107938095D01*
X103961904Y-107938095D01*
X104057142Y-107890476D01*
X104104761Y-107842857D01*
X104152380Y-107747619D01*
X104152380Y-107557142D01*
X104104761Y-107461904D01*
X104057142Y-107414285D01*
X103961904Y-107366666D01*
X103723809Y-107366666D01*
X103628571Y-107414285D01*
X103580952Y-107461904D01*
X103533333Y-107557142D01*
X103533333Y-107747619D01*
X103580952Y-107842857D01*
X103628571Y-107890476D01*
X103723809Y-107938095D01*
X103104761Y-106223809D02*
X104390476Y-107080952D01*
X104152380Y-105461904D02*
X103152380Y-105461904D01*
X104104761Y-105461904D02*
X104152380Y-105557142D01*
X104152380Y-105747619D01*
X104104761Y-105842857D01*
X104057142Y-105890476D01*
X103961904Y-105938095D01*
X103676190Y-105938095D01*
X103580952Y-105890476D01*
X103533333Y-105842857D01*
X103485714Y-105747619D01*
X103485714Y-105557142D01*
X103533333Y-105461904D01*
X104104761Y-104557142D02*
X104152380Y-104652380D01*
X104152380Y-104842857D01*
X104104761Y-104938095D01*
X104057142Y-104985714D01*
X103961904Y-105033333D01*
X103676190Y-105033333D01*
X103580952Y-104985714D01*
X103533333Y-104938095D01*
X103485714Y-104842857D01*
X103485714Y-104652380D01*
X103533333Y-104557142D01*
X104104761Y-103700000D02*
X104152380Y-103795238D01*
X104152380Y-103985714D01*
X104104761Y-104080952D01*
X104057142Y-104128571D01*
X103961904Y-104176190D01*
X103676190Y-104176190D01*
X103580952Y-104128571D01*
X103533333Y-104080952D01*
X103485714Y-103985714D01*
X103485714Y-103795238D01*
X103533333Y-103700000D01*
X103771428Y-103271428D02*
X103771428Y-102509523D01*
X104104761Y-101604761D02*
X104152380Y-101700000D01*
X104152380Y-101890476D01*
X104104761Y-101985714D01*
X104057142Y-102033333D01*
X103961904Y-102080952D01*
X103676190Y-102080952D01*
X103580952Y-102033333D01*
X103533333Y-101985714D01*
X103485714Y-101890476D01*
X103485714Y-101700000D01*
X103533333Y-101604761D01*
X104152380Y-101033333D02*
X104104761Y-101128571D01*
X104057142Y-101176190D01*
X103961904Y-101223809D01*
X103676190Y-101223809D01*
X103580952Y-101176190D01*
X103533333Y-101128571D01*
X103485714Y-101033333D01*
X103485714Y-100890476D01*
X103533333Y-100795238D01*
X103580952Y-100747619D01*
X103676190Y-100700000D01*
X103961904Y-100700000D01*
X104057142Y-100747619D01*
X104104761Y-100795238D01*
X104152380Y-100890476D01*
X104152380Y-101033333D01*
X103485714Y-100271428D02*
X104152380Y-100271428D01*
X103580952Y-100271428D02*
X103533333Y-100223809D01*
X103485714Y-100128571D01*
X103485714Y-99985714D01*
X103533333Y-99890476D01*
X103628571Y-99842857D01*
X104152380Y-99842857D01*
X103485714Y-99509523D02*
X103485714Y-99128571D01*
X103152380Y-99366666D02*
X104009523Y-99366666D01*
X104104761Y-99319047D01*
X104152380Y-99223809D01*
X104152380Y-99128571D01*
X104152380Y-98795238D02*
X103485714Y-98795238D01*
X103676190Y-98795238D02*
X103580952Y-98747619D01*
X103533333Y-98700000D01*
X103485714Y-98604761D01*
X103485714Y-98509523D01*
X104152380Y-98033333D02*
X104104761Y-98128571D01*
X104057142Y-98176190D01*
X103961904Y-98223809D01*
X103676190Y-98223809D01*
X103580952Y-98176190D01*
X103533333Y-98128571D01*
X103485714Y-98033333D01*
X103485714Y-97890476D01*
X103533333Y-97795238D01*
X103580952Y-97747619D01*
X103676190Y-97700000D01*
X103961904Y-97700000D01*
X104057142Y-97747619D01*
X104104761Y-97795238D01*
X104152380Y-97890476D01*
X104152380Y-98033333D01*
X104152380Y-97128571D02*
X104104761Y-97223809D01*
X104009523Y-97271428D01*
X103152380Y-97271428D01*
X104152380Y-96604761D02*
X104104761Y-96700000D01*
X104009523Y-96747619D01*
X103152380Y-96747619D01*
X104104761Y-95842857D02*
X104152380Y-95938095D01*
X104152380Y-96128571D01*
X104104761Y-96223809D01*
X104009523Y-96271428D01*
X103628571Y-96271428D01*
X103533333Y-96223809D01*
X103485714Y-96128571D01*
X103485714Y-95938095D01*
X103533333Y-95842857D01*
X103628571Y-95795238D01*
X103723809Y-95795238D01*
X103819047Y-96271428D01*
X104152380Y-95366666D02*
X103485714Y-95366666D01*
X103676190Y-95366666D02*
X103580952Y-95319047D01*
X103533333Y-95271428D01*
X103485714Y-95176190D01*
X103485714Y-95080952D01*
X103771428Y-94747619D02*
X103771428Y-93985714D01*
X104152380Y-93509523D02*
X103485714Y-93509523D01*
X103676190Y-93509523D02*
X103580952Y-93461904D01*
X103533333Y-93414285D01*
X103485714Y-93319047D01*
X103485714Y-93223809D01*
X104104761Y-92938095D02*
X104152380Y-92842857D01*
X104152380Y-92652380D01*
X104104761Y-92557142D01*
X104009523Y-92509523D01*
X103961904Y-92509523D01*
X103866666Y-92557142D01*
X103819047Y-92652380D01*
X103819047Y-92795238D01*
X103771428Y-92890476D01*
X103676190Y-92938095D01*
X103628571Y-92938095D01*
X103533333Y-92890476D01*
X103485714Y-92795238D01*
X103485714Y-92652380D01*
X103533333Y-92557142D01*
X116442857Y-94937380D02*
X116442857Y-93937380D01*
X116680952Y-93937380D01*
X116823809Y-93985000D01*
X116919047Y-94080238D01*
X116966666Y-94175476D01*
X117014285Y-94365952D01*
X117014285Y-94508809D01*
X116966666Y-94699285D01*
X116919047Y-94794523D01*
X116823809Y-94889761D01*
X116680952Y-94937380D01*
X116442857Y-94937380D01*
X118014285Y-94842142D02*
X117966666Y-94889761D01*
X117823809Y-94937380D01*
X117728571Y-94937380D01*
X117585714Y-94889761D01*
X117490476Y-94794523D01*
X117442857Y-94699285D01*
X117395238Y-94508809D01*
X117395238Y-94365952D01*
X117442857Y-94175476D01*
X117490476Y-94080238D01*
X117585714Y-93985000D01*
X117728571Y-93937380D01*
X117823809Y-93937380D01*
X117966666Y-93985000D01*
X118014285Y-94032619D01*
X119014285Y-94842142D02*
X118966666Y-94889761D01*
X118823809Y-94937380D01*
X118728571Y-94937380D01*
X118585714Y-94889761D01*
X118490476Y-94794523D01*
X118442857Y-94699285D01*
X118395238Y-94508809D01*
X118395238Y-94365952D01*
X118442857Y-94175476D01*
X118490476Y-94080238D01*
X118585714Y-93985000D01*
X118728571Y-93937380D01*
X118823809Y-93937380D01*
X118966666Y-93985000D01*
X119014285Y-94032619D01*
X120776190Y-94842142D02*
X120728571Y-94889761D01*
X120585714Y-94937380D01*
X120490476Y-94937380D01*
X120347619Y-94889761D01*
X120252380Y-94794523D01*
X120204761Y-94699285D01*
X120157142Y-94508809D01*
X120157142Y-94365952D01*
X120204761Y-94175476D01*
X120252380Y-94080238D01*
X120347619Y-93985000D01*
X120490476Y-93937380D01*
X120585714Y-93937380D01*
X120728571Y-93985000D01*
X120776190Y-94032619D01*
X121347619Y-94937380D02*
X121252380Y-94889761D01*
X121204761Y-94842142D01*
X121157142Y-94746904D01*
X121157142Y-94461190D01*
X121204761Y-94365952D01*
X121252380Y-94318333D01*
X121347619Y-94270714D01*
X121490476Y-94270714D01*
X121585714Y-94318333D01*
X121633333Y-94365952D01*
X121680952Y-94461190D01*
X121680952Y-94746904D01*
X121633333Y-94842142D01*
X121585714Y-94889761D01*
X121490476Y-94937380D01*
X121347619Y-94937380D01*
X122109523Y-94270714D02*
X122109523Y-94937380D01*
X122109523Y-94365952D02*
X122157142Y-94318333D01*
X122252380Y-94270714D01*
X122395238Y-94270714D01*
X122490476Y-94318333D01*
X122538095Y-94413571D01*
X122538095Y-94937380D01*
X122871428Y-94270714D02*
X123252380Y-94270714D01*
X123014285Y-93937380D02*
X123014285Y-94794523D01*
X123061904Y-94889761D01*
X123157142Y-94937380D01*
X123252380Y-94937380D01*
X123585714Y-94937380D02*
X123585714Y-94270714D01*
X123585714Y-94461190D02*
X123633333Y-94365952D01*
X123680952Y-94318333D01*
X123776190Y-94270714D01*
X123871428Y-94270714D01*
X124347619Y-94937380D02*
X124252380Y-94889761D01*
X124204761Y-94842142D01*
X124157142Y-94746904D01*
X124157142Y-94461190D01*
X124204761Y-94365952D01*
X124252380Y-94318333D01*
X124347619Y-94270714D01*
X124490476Y-94270714D01*
X124585714Y-94318333D01*
X124633333Y-94365952D01*
X124680952Y-94461190D01*
X124680952Y-94746904D01*
X124633333Y-94842142D01*
X124585714Y-94889761D01*
X124490476Y-94937380D01*
X124347619Y-94937380D01*
X125252380Y-94937380D02*
X125157142Y-94889761D01*
X125109523Y-94794523D01*
X125109523Y-93937380D01*
X125776190Y-94937380D02*
X125680952Y-94889761D01*
X125633333Y-94794523D01*
X125633333Y-93937380D01*
X126538095Y-94889761D02*
X126442857Y-94937380D01*
X126252380Y-94937380D01*
X126157142Y-94889761D01*
X126109523Y-94794523D01*
X126109523Y-94413571D01*
X126157142Y-94318333D01*
X126252380Y-94270714D01*
X126442857Y-94270714D01*
X126538095Y-94318333D01*
X126585714Y-94413571D01*
X126585714Y-94508809D01*
X126109523Y-94604047D01*
X127014285Y-94937380D02*
X127014285Y-94270714D01*
X127014285Y-94461190D02*
X127061904Y-94365952D01*
X127109523Y-94318333D01*
X127204761Y-94270714D01*
X127300000Y-94270714D01*
X119728571Y-96547380D02*
X119395238Y-96071190D01*
X119157142Y-96547380D02*
X119157142Y-95547380D01*
X119538095Y-95547380D01*
X119633333Y-95595000D01*
X119680952Y-95642619D01*
X119728571Y-95737857D01*
X119728571Y-95880714D01*
X119680952Y-95975952D01*
X119633333Y-96023571D01*
X119538095Y-96071190D01*
X119157142Y-96071190D01*
X120538095Y-96499761D02*
X120442857Y-96547380D01*
X120252380Y-96547380D01*
X120157142Y-96499761D01*
X120109523Y-96404523D01*
X120109523Y-96023571D01*
X120157142Y-95928333D01*
X120252380Y-95880714D01*
X120442857Y-95880714D01*
X120538095Y-95928333D01*
X120585714Y-96023571D01*
X120585714Y-96118809D01*
X120109523Y-96214047D01*
X120919047Y-95880714D02*
X121157142Y-96547380D01*
X121395238Y-95880714D01*
X123061904Y-96547380D02*
X122490476Y-96547380D01*
X122776190Y-96547380D02*
X122776190Y-95547380D01*
X122680952Y-95690238D01*
X122585714Y-95785476D01*
X122490476Y-95833095D01*
X123490476Y-96452142D02*
X123538095Y-96499761D01*
X123490476Y-96547380D01*
X123442857Y-96499761D01*
X123490476Y-96452142D01*
X123490476Y-96547380D01*
X124157142Y-95547380D02*
X124252380Y-95547380D01*
X124347619Y-95595000D01*
X124395238Y-95642619D01*
X124442857Y-95737857D01*
X124490476Y-95928333D01*
X124490476Y-96166428D01*
X124442857Y-96356904D01*
X124395238Y-96452142D01*
X124347619Y-96499761D01*
X124252380Y-96547380D01*
X124157142Y-96547380D01*
X124061904Y-96499761D01*
X124014285Y-96452142D01*
X123966666Y-96356904D01*
X123919047Y-96166428D01*
X123919047Y-95928333D01*
X123966666Y-95737857D01*
X124014285Y-95642619D01*
X124061904Y-95595000D01*
X124157142Y-95547380D01*
X116942857Y-97252619D02*
X116990476Y-97205000D01*
X117085714Y-97157380D01*
X117323809Y-97157380D01*
X117419047Y-97205000D01*
X117466666Y-97252619D01*
X117514285Y-97347857D01*
X117514285Y-97443095D01*
X117466666Y-97585952D01*
X116895238Y-98157380D01*
X117514285Y-98157380D01*
X118133333Y-97157380D02*
X118228571Y-97157380D01*
X118323809Y-97205000D01*
X118371428Y-97252619D01*
X118419047Y-97347857D01*
X118466666Y-97538333D01*
X118466666Y-97776428D01*
X118419047Y-97966904D01*
X118371428Y-98062142D01*
X118323809Y-98109761D01*
X118228571Y-98157380D01*
X118133333Y-98157380D01*
X118038095Y-98109761D01*
X117990476Y-98062142D01*
X117942857Y-97966904D01*
X117895238Y-97776428D01*
X117895238Y-97538333D01*
X117942857Y-97347857D01*
X117990476Y-97252619D01*
X118038095Y-97205000D01*
X118133333Y-97157380D01*
X118847619Y-97252619D02*
X118895238Y-97205000D01*
X118990476Y-97157380D01*
X119228571Y-97157380D01*
X119323809Y-97205000D01*
X119371428Y-97252619D01*
X119419047Y-97347857D01*
X119419047Y-97443095D01*
X119371428Y-97585952D01*
X118800000Y-98157380D01*
X119419047Y-98157380D01*
X119800000Y-97252619D02*
X119847619Y-97205000D01*
X119942857Y-97157380D01*
X120180952Y-97157380D01*
X120276190Y-97205000D01*
X120323809Y-97252619D01*
X120371428Y-97347857D01*
X120371428Y-97443095D01*
X120323809Y-97585952D01*
X119752380Y-98157380D01*
X120371428Y-98157380D01*
X120800000Y-97776428D02*
X121561904Y-97776428D01*
X122228571Y-97157380D02*
X122323809Y-97157380D01*
X122419047Y-97205000D01*
X122466666Y-97252619D01*
X122514285Y-97347857D01*
X122561904Y-97538333D01*
X122561904Y-97776428D01*
X122514285Y-97966904D01*
X122466666Y-98062142D01*
X122419047Y-98109761D01*
X122323809Y-98157380D01*
X122228571Y-98157380D01*
X122133333Y-98109761D01*
X122085714Y-98062142D01*
X122038095Y-97966904D01*
X121990476Y-97776428D01*
X121990476Y-97538333D01*
X122038095Y-97347857D01*
X122085714Y-97252619D01*
X122133333Y-97205000D01*
X122228571Y-97157380D01*
X123419047Y-97157380D02*
X123228571Y-97157380D01*
X123133333Y-97205000D01*
X123085714Y-97252619D01*
X122990476Y-97395476D01*
X122942857Y-97585952D01*
X122942857Y-97966904D01*
X122990476Y-98062142D01*
X123038095Y-98109761D01*
X123133333Y-98157380D01*
X123323809Y-98157380D01*
X123419047Y-98109761D01*
X123466666Y-98062142D01*
X123514285Y-97966904D01*
X123514285Y-97728809D01*
X123466666Y-97633571D01*
X123419047Y-97585952D01*
X123323809Y-97538333D01*
X123133333Y-97538333D01*
X123038095Y-97585952D01*
X122990476Y-97633571D01*
X122942857Y-97728809D01*
X123942857Y-97776428D02*
X124704761Y-97776428D01*
X125133333Y-97252619D02*
X125180952Y-97205000D01*
X125276190Y-97157380D01*
X125514285Y-97157380D01*
X125609523Y-97205000D01*
X125657142Y-97252619D01*
X125704761Y-97347857D01*
X125704761Y-97443095D01*
X125657142Y-97585952D01*
X125085714Y-98157380D01*
X125704761Y-98157380D01*
X126561904Y-97157380D02*
X126371428Y-97157380D01*
X126276190Y-97205000D01*
X126228571Y-97252619D01*
X126133333Y-97395476D01*
X126085714Y-97585952D01*
X126085714Y-97966904D01*
X126133333Y-98062142D01*
X126180952Y-98109761D01*
X126276190Y-98157380D01*
X126466666Y-98157380D01*
X126561904Y-98109761D01*
X126609523Y-98062142D01*
X126657142Y-97966904D01*
X126657142Y-97728809D01*
X126609523Y-97633571D01*
X126561904Y-97585952D01*
X126466666Y-97538333D01*
X126276190Y-97538333D01*
X126180952Y-97585952D01*
X126133333Y-97633571D01*
X126085714Y-97728809D01*
X117395238Y-99767380D02*
X117395238Y-98767380D01*
X117633333Y-98767380D01*
X117776190Y-98815000D01*
X117871428Y-98910238D01*
X117919047Y-99005476D01*
X117966666Y-99195952D01*
X117966666Y-99338809D01*
X117919047Y-99529285D01*
X117871428Y-99624523D01*
X117776190Y-99719761D01*
X117633333Y-99767380D01*
X117395238Y-99767380D01*
X118823809Y-99767380D02*
X118823809Y-99243571D01*
X118776190Y-99148333D01*
X118680952Y-99100714D01*
X118490476Y-99100714D01*
X118395238Y-99148333D01*
X118823809Y-99719761D02*
X118728571Y-99767380D01*
X118490476Y-99767380D01*
X118395238Y-99719761D01*
X118347619Y-99624523D01*
X118347619Y-99529285D01*
X118395238Y-99434047D01*
X118490476Y-99386428D01*
X118728571Y-99386428D01*
X118823809Y-99338809D01*
X119204761Y-99100714D02*
X119442857Y-99767380D01*
X119680952Y-99100714D01*
X120061904Y-99767380D02*
X120061904Y-99100714D01*
X120061904Y-98767380D02*
X120014285Y-98815000D01*
X120061904Y-98862619D01*
X120109523Y-98815000D01*
X120061904Y-98767380D01*
X120061904Y-98862619D01*
X120966666Y-99767380D02*
X120966666Y-98767380D01*
X120966666Y-99719761D02*
X120871428Y-99767380D01*
X120680952Y-99767380D01*
X120585714Y-99719761D01*
X120538095Y-99672142D01*
X120490476Y-99576904D01*
X120490476Y-99291190D01*
X120538095Y-99195952D01*
X120585714Y-99148333D01*
X120680952Y-99100714D01*
X120871428Y-99100714D01*
X120966666Y-99148333D01*
X122395238Y-99291190D02*
X122395238Y-99767380D01*
X122061904Y-98767380D02*
X122395238Y-99291190D01*
X122728571Y-98767380D01*
X123204761Y-99767380D02*
X123109523Y-99719761D01*
X123061904Y-99672142D01*
X123014285Y-99576904D01*
X123014285Y-99291190D01*
X123061904Y-99195952D01*
X123109523Y-99148333D01*
X123204761Y-99100714D01*
X123347619Y-99100714D01*
X123442857Y-99148333D01*
X123490476Y-99195952D01*
X123538095Y-99291190D01*
X123538095Y-99576904D01*
X123490476Y-99672142D01*
X123442857Y-99719761D01*
X123347619Y-99767380D01*
X123204761Y-99767380D01*
X124395238Y-99100714D02*
X124395238Y-99767380D01*
X123966666Y-99100714D02*
X123966666Y-99624523D01*
X124014285Y-99719761D01*
X124109523Y-99767380D01*
X124252380Y-99767380D01*
X124347619Y-99719761D01*
X124395238Y-99672142D01*
X124871428Y-99100714D02*
X124871428Y-99767380D01*
X124871428Y-99195952D02*
X124919047Y-99148333D01*
X125014285Y-99100714D01*
X125157142Y-99100714D01*
X125252380Y-99148333D01*
X125300000Y-99243571D01*
X125300000Y-99767380D01*
X126204761Y-99100714D02*
X126204761Y-99910238D01*
X126157142Y-100005476D01*
X126109523Y-100053095D01*
X126014285Y-100100714D01*
X125871428Y-100100714D01*
X125776190Y-100053095D01*
X126204761Y-99719761D02*
X126109523Y-99767380D01*
X125919047Y-99767380D01*
X125823809Y-99719761D01*
X125776190Y-99672142D01*
X125728571Y-99576904D01*
X125728571Y-99291190D01*
X125776190Y-99195952D01*
X125823809Y-99148333D01*
X125919047Y-99100714D01*
X126109523Y-99100714D01*
X126204761Y-99148333D01*
X143914285Y-56647619D02*
X143342857Y-56647619D01*
X143628571Y-55647619D02*
X143628571Y-56647619D01*
X142438095Y-55647619D02*
X142771428Y-56123809D01*
X143009523Y-55647619D02*
X143009523Y-56647619D01*
X142628571Y-56647619D01*
X142533333Y-56600000D01*
X142485714Y-56552380D01*
X142438095Y-56457142D01*
X142438095Y-56314285D01*
X142485714Y-56219047D01*
X142533333Y-56171428D01*
X142628571Y-56123809D01*
X143009523Y-56123809D01*
X142057142Y-55933333D02*
X141580952Y-55933333D01*
X142152380Y-55647619D02*
X141819047Y-56647619D01*
X141485714Y-55647619D01*
X140580952Y-55742857D02*
X140628571Y-55695238D01*
X140771428Y-55647619D01*
X140866666Y-55647619D01*
X141009523Y-55695238D01*
X141104761Y-55790476D01*
X141152380Y-55885714D01*
X141200000Y-56076190D01*
X141200000Y-56219047D01*
X141152380Y-56409523D01*
X141104761Y-56504761D01*
X141009523Y-56600000D01*
X140866666Y-56647619D01*
X140771428Y-56647619D01*
X140628571Y-56600000D01*
X140580952Y-56552380D01*
X140152380Y-55647619D02*
X140152380Y-56647619D01*
X139580952Y-55647619D02*
X140009523Y-56219047D01*
X139580952Y-56647619D02*
X140152380Y-56076190D01*
X132119047Y-55647619D02*
X132690476Y-55647619D01*
X132404761Y-55647619D02*
X132404761Y-56647619D01*
X132500000Y-56504761D01*
X132595238Y-56409523D01*
X132690476Y-56361904D01*
X131738095Y-56552380D02*
X131690476Y-56600000D01*
X131595238Y-56647619D01*
X131357142Y-56647619D01*
X131261904Y-56600000D01*
X131214285Y-56552380D01*
X131166666Y-56457142D01*
X131166666Y-56361904D01*
X131214285Y-56219047D01*
X131785714Y-55647619D01*
X131166666Y-55647619D01*
X130880952Y-56647619D02*
X130547619Y-55647619D01*
X130214285Y-56647619D01*
X133719047Y-56171428D02*
X134480952Y-56171428D01*
X128419047Y-56171428D02*
X129180952Y-56171428D01*
X128800000Y-56552380D02*
X128800000Y-55790476D01*
X120309523Y-55847619D02*
X120309523Y-56847619D01*
X119928571Y-56847619D01*
X119833333Y-56800000D01*
X119785714Y-56752380D01*
X119738095Y-56657142D01*
X119738095Y-56514285D01*
X119785714Y-56419047D01*
X119833333Y-56371428D01*
X119928571Y-56323809D01*
X120309523Y-56323809D01*
X119119047Y-56847619D02*
X118928571Y-56847619D01*
X118833333Y-56800000D01*
X118738095Y-56704761D01*
X118690476Y-56514285D01*
X118690476Y-56180952D01*
X118738095Y-55990476D01*
X118833333Y-55895238D01*
X118928571Y-55847619D01*
X119119047Y-55847619D01*
X119214285Y-55895238D01*
X119309523Y-55990476D01*
X119357142Y-56180952D01*
X119357142Y-56514285D01*
X119309523Y-56704761D01*
X119214285Y-56800000D01*
X119119047Y-56847619D01*
X118357142Y-56847619D02*
X118119047Y-55847619D01*
X117928571Y-56561904D01*
X117738095Y-55847619D01*
X117500000Y-56847619D01*
X117119047Y-56371428D02*
X116785714Y-56371428D01*
X116642857Y-55847619D02*
X117119047Y-55847619D01*
X117119047Y-56847619D01*
X116642857Y-56847619D01*
X115642857Y-55847619D02*
X115976190Y-56323809D01*
X116214285Y-55847619D02*
X116214285Y-56847619D01*
X115833333Y-56847619D01*
X115738095Y-56800000D01*
X115690476Y-56752380D01*
X115642857Y-56657142D01*
X115642857Y-56514285D01*
X115690476Y-56419047D01*
X115738095Y-56371428D01*
X115833333Y-56323809D01*
X116214285Y-56323809D01*
X135809523Y-117904761D02*
X135952380Y-117952380D01*
X136190476Y-117952380D01*
X136285714Y-117904761D01*
X136333333Y-117857142D01*
X136380952Y-117761904D01*
X136380952Y-117666666D01*
X136333333Y-117571428D01*
X136285714Y-117523809D01*
X136190476Y-117476190D01*
X136000000Y-117428571D01*
X135904761Y-117380952D01*
X135857142Y-117333333D01*
X135809523Y-117238095D01*
X135809523Y-117142857D01*
X135857142Y-117047619D01*
X135904761Y-117000000D01*
X136000000Y-116952380D01*
X136238095Y-116952380D01*
X136380952Y-117000000D01*
X136666666Y-116952380D02*
X137238095Y-116952380D01*
X136952380Y-117952380D02*
X136952380Y-116952380D01*
X137761904Y-116952380D02*
X137952380Y-116952380D01*
X138047619Y-117000000D01*
X138142857Y-117095238D01*
X138190476Y-117285714D01*
X138190476Y-117619047D01*
X138142857Y-117809523D01*
X138047619Y-117904761D01*
X137952380Y-117952380D01*
X137761904Y-117952380D01*
X137666666Y-117904761D01*
X137571428Y-117809523D01*
X137523809Y-117619047D01*
X137523809Y-117285714D01*
X137571428Y-117095238D01*
X137666666Y-117000000D01*
X137761904Y-116952380D01*
X138619047Y-117952380D02*
X138619047Y-116952380D01*
X139000000Y-116952380D01*
X139095238Y-117000000D01*
X139142857Y-117047619D01*
X139190476Y-117142857D01*
X139190476Y-117285714D01*
X139142857Y-117380952D01*
X139095238Y-117428571D01*
X139000000Y-117476190D01*
X138619047Y-117476190D01*
X163214285Y-117952380D02*
X163214285Y-116952380D01*
X163595238Y-116952380D01*
X163690476Y-117000000D01*
X163738095Y-117047619D01*
X163785714Y-117142857D01*
X163785714Y-117285714D01*
X163738095Y-117380952D01*
X163690476Y-117428571D01*
X163595238Y-117476190D01*
X163214285Y-117476190D01*
X164785714Y-117952380D02*
X164452380Y-117476190D01*
X164214285Y-117952380D02*
X164214285Y-116952380D01*
X164595238Y-116952380D01*
X164690476Y-117000000D01*
X164738095Y-117047619D01*
X164785714Y-117142857D01*
X164785714Y-117285714D01*
X164738095Y-117380952D01*
X164690476Y-117428571D01*
X164595238Y-117476190D01*
X164214285Y-117476190D01*
X165404761Y-116952380D02*
X165595238Y-116952380D01*
X165690476Y-117000000D01*
X165785714Y-117095238D01*
X165833333Y-117285714D01*
X165833333Y-117619047D01*
X165785714Y-117809523D01*
X165690476Y-117904761D01*
X165595238Y-117952380D01*
X165404761Y-117952380D01*
X165309523Y-117904761D01*
X165214285Y-117809523D01*
X165166666Y-117619047D01*
X165166666Y-117285714D01*
X165214285Y-117095238D01*
X165309523Y-117000000D01*
X165404761Y-116952380D01*
X166785714Y-117000000D02*
X166690476Y-116952380D01*
X166547619Y-116952380D01*
X166404761Y-117000000D01*
X166309523Y-117095238D01*
X166261904Y-117190476D01*
X166214285Y-117380952D01*
X166214285Y-117523809D01*
X166261904Y-117714285D01*
X166309523Y-117809523D01*
X166404761Y-117904761D01*
X166547619Y-117952380D01*
X166642857Y-117952380D01*
X166785714Y-117904761D01*
X166833333Y-117857142D01*
X166833333Y-117523809D01*
X166642857Y-117523809D01*
X167833333Y-117952380D02*
X167500000Y-117476190D01*
X167261904Y-117952380D02*
X167261904Y-116952380D01*
X167642857Y-116952380D01*
X167738095Y-117000000D01*
X167785714Y-117047619D01*
X167833333Y-117142857D01*
X167833333Y-117285714D01*
X167785714Y-117380952D01*
X167738095Y-117428571D01*
X167642857Y-117476190D01*
X167261904Y-117476190D01*
X168214285Y-117666666D02*
X168690476Y-117666666D01*
X168119047Y-117952380D02*
X168452380Y-116952380D01*
X168785714Y-117952380D01*
X169119047Y-117952380D02*
X169119047Y-116952380D01*
X169452380Y-117666666D01*
X169785714Y-116952380D01*
X169785714Y-117952380D01*
D11*
X153771428Y-130561904D02*
X153771428Y-129761904D01*
X154076190Y-129761904D01*
X154152380Y-129800000D01*
X154190476Y-129838095D01*
X154228571Y-129914285D01*
X154228571Y-130028571D01*
X154190476Y-130104761D01*
X154152380Y-130142857D01*
X154076190Y-130180952D01*
X153771428Y-130180952D01*
X155028571Y-130561904D02*
X154761904Y-130180952D01*
X154571428Y-130561904D02*
X154571428Y-129761904D01*
X154876190Y-129761904D01*
X154952380Y-129800000D01*
X154990476Y-129838095D01*
X155028571Y-129914285D01*
X155028571Y-130028571D01*
X154990476Y-130104761D01*
X154952380Y-130142857D01*
X154876190Y-130180952D01*
X154571428Y-130180952D01*
X155523809Y-129761904D02*
X155676190Y-129761904D01*
X155752380Y-129800000D01*
X155828571Y-129876190D01*
X155866666Y-130028571D01*
X155866666Y-130295238D01*
X155828571Y-130447619D01*
X155752380Y-130523809D01*
X155676190Y-130561904D01*
X155523809Y-130561904D01*
X155447619Y-130523809D01*
X155371428Y-130447619D01*
X155333333Y-130295238D01*
X155333333Y-130028571D01*
X155371428Y-129876190D01*
X155447619Y-129800000D01*
X155523809Y-129761904D01*
X156628571Y-129800000D02*
X156552380Y-129761904D01*
X156438095Y-129761904D01*
X156323809Y-129800000D01*
X156247619Y-129876190D01*
X156209523Y-129952380D01*
X156171428Y-130104761D01*
X156171428Y-130219047D01*
X156209523Y-130371428D01*
X156247619Y-130447619D01*
X156323809Y-130523809D01*
X156438095Y-130561904D01*
X156514285Y-130561904D01*
X156628571Y-130523809D01*
X156666666Y-130485714D01*
X156666666Y-130219047D01*
X156514285Y-130219047D01*
X150933333Y-130561904D02*
X150933333Y-129761904D01*
X151238095Y-129761904D01*
X151314285Y-129800000D01*
X151352380Y-129838095D01*
X151390476Y-129914285D01*
X151390476Y-130028571D01*
X151352380Y-130104761D01*
X151314285Y-130142857D01*
X151238095Y-130180952D01*
X150933333Y-130180952D01*
X151657142Y-129761904D02*
X151847619Y-130561904D01*
X152000000Y-129990476D01*
X152152380Y-130561904D01*
X152342857Y-129761904D01*
X153104761Y-130561904D02*
X152838095Y-130180952D01*
X152647619Y-130561904D02*
X152647619Y-129761904D01*
X152952380Y-129761904D01*
X153028571Y-129800000D01*
X153066666Y-129838095D01*
X153104761Y-129914285D01*
X153104761Y-130028571D01*
X153066666Y-130104761D01*
X153028571Y-130142857D01*
X152952380Y-130180952D01*
X152647619Y-130180952D01*
X146885714Y-130333333D02*
X147266666Y-130333333D01*
X146809523Y-130561904D02*
X147076190Y-129761904D01*
X147342857Y-130561904D01*
X147990476Y-130561904D02*
X147609523Y-130561904D01*
X147609523Y-129761904D01*
X148219047Y-130333333D02*
X148600000Y-130333333D01*
X148142857Y-130561904D02*
X148409523Y-129761904D01*
X148676190Y-130561904D01*
X149400000Y-130561904D02*
X149133333Y-130180952D01*
X148942857Y-130561904D02*
X148942857Y-129761904D01*
X149247619Y-129761904D01*
X149323809Y-129800000D01*
X149361904Y-129838095D01*
X149400000Y-129914285D01*
X149400000Y-130028571D01*
X149361904Y-130104761D01*
X149323809Y-130142857D01*
X149247619Y-130180952D01*
X148942857Y-130180952D01*
X149742857Y-130561904D02*
X149742857Y-129761904D01*
X150009523Y-130333333D01*
X150276190Y-129761904D01*
X150276190Y-130561904D01*
D10*
X191500000Y-87100000D02*
X192000000Y-86600000D01*
X191500000Y-88900000D02*
X191500000Y-87100000D01*
X190600000Y-89800000D02*
X191500000Y-88900000D01*
X191600000Y-96300000D02*
X192100000Y-96800000D01*
X191600000Y-94800000D02*
X191600000Y-96300000D01*
X190600000Y-93900000D02*
X191600000Y-94800000D01*
%TO.C,F1*%
X114266666Y-74728571D02*
X113933333Y-74728571D01*
X113933333Y-75252380D02*
X113933333Y-74252380D01*
X114409523Y-74252380D01*
X115314285Y-75252380D02*
X114742857Y-75252380D01*
X115028571Y-75252380D02*
X115028571Y-74252380D01*
X114933333Y-74395238D01*
X114838095Y-74490476D01*
X114742857Y-74538095D01*
%TO.C,TP15*%
X197461904Y-106852380D02*
X198033333Y-106852380D01*
X197747619Y-107852380D02*
X197747619Y-106852380D01*
X198366666Y-107852380D02*
X198366666Y-106852380D01*
X198747619Y-106852380D01*
X198842857Y-106900000D01*
X198890476Y-106947619D01*
X198938095Y-107042857D01*
X198938095Y-107185714D01*
X198890476Y-107280952D01*
X198842857Y-107328571D01*
X198747619Y-107376190D01*
X198366666Y-107376190D01*
X199890476Y-107852380D02*
X199319047Y-107852380D01*
X199604761Y-107852380D02*
X199604761Y-106852380D01*
X199509523Y-106995238D01*
X199414285Y-107090476D01*
X199319047Y-107138095D01*
X200795238Y-106852380D02*
X200319047Y-106852380D01*
X200271428Y-107328571D01*
X200319047Y-107280952D01*
X200414285Y-107233333D01*
X200652380Y-107233333D01*
X200747619Y-107280952D01*
X200795238Y-107328571D01*
X200842857Y-107423809D01*
X200842857Y-107661904D01*
X200795238Y-107757142D01*
X200747619Y-107804761D01*
X200652380Y-107852380D01*
X200414285Y-107852380D01*
X200319047Y-107804761D01*
X200271428Y-107757142D01*
%TO.C,TP14*%
X109961904Y-96252380D02*
X110533333Y-96252380D01*
X110247619Y-97252380D02*
X110247619Y-96252380D01*
X110866666Y-97252380D02*
X110866666Y-96252380D01*
X111247619Y-96252380D01*
X111342857Y-96300000D01*
X111390476Y-96347619D01*
X111438095Y-96442857D01*
X111438095Y-96585714D01*
X111390476Y-96680952D01*
X111342857Y-96728571D01*
X111247619Y-96776190D01*
X110866666Y-96776190D01*
X112390476Y-97252380D02*
X111819047Y-97252380D01*
X112104761Y-97252380D02*
X112104761Y-96252380D01*
X112009523Y-96395238D01*
X111914285Y-96490476D01*
X111819047Y-96538095D01*
X113247619Y-96585714D02*
X113247619Y-97252380D01*
X113009523Y-96204761D02*
X112771428Y-96919047D01*
X113390476Y-96919047D01*
%TO.C,TP13*%
X109961904Y-99552380D02*
X110533333Y-99552380D01*
X110247619Y-100552380D02*
X110247619Y-99552380D01*
X110866666Y-100552380D02*
X110866666Y-99552380D01*
X111247619Y-99552380D01*
X111342857Y-99600000D01*
X111390476Y-99647619D01*
X111438095Y-99742857D01*
X111438095Y-99885714D01*
X111390476Y-99980952D01*
X111342857Y-100028571D01*
X111247619Y-100076190D01*
X110866666Y-100076190D01*
X112390476Y-100552380D02*
X111819047Y-100552380D01*
X112104761Y-100552380D02*
X112104761Y-99552380D01*
X112009523Y-99695238D01*
X111914285Y-99790476D01*
X111819047Y-99838095D01*
X112723809Y-99552380D02*
X113342857Y-99552380D01*
X113009523Y-99933333D01*
X113152380Y-99933333D01*
X113247619Y-99980952D01*
X113295238Y-100028571D01*
X113342857Y-100123809D01*
X113342857Y-100361904D01*
X113295238Y-100457142D01*
X113247619Y-100504761D01*
X113152380Y-100552380D01*
X112866666Y-100552380D01*
X112771428Y-100504761D01*
X112723809Y-100457142D01*
%TO.C,TP12*%
X148361904Y-64754380D02*
X148933333Y-64754380D01*
X148647619Y-65754380D02*
X148647619Y-64754380D01*
X149266666Y-65754380D02*
X149266666Y-64754380D01*
X149647619Y-64754380D01*
X149742857Y-64802000D01*
X149790476Y-64849619D01*
X149838095Y-64944857D01*
X149838095Y-65087714D01*
X149790476Y-65182952D01*
X149742857Y-65230571D01*
X149647619Y-65278190D01*
X149266666Y-65278190D01*
X150790476Y-65754380D02*
X150219047Y-65754380D01*
X150504761Y-65754380D02*
X150504761Y-64754380D01*
X150409523Y-64897238D01*
X150314285Y-64992476D01*
X150219047Y-65040095D01*
X151171428Y-64849619D02*
X151219047Y-64802000D01*
X151314285Y-64754380D01*
X151552380Y-64754380D01*
X151647619Y-64802000D01*
X151695238Y-64849619D01*
X151742857Y-64944857D01*
X151742857Y-65040095D01*
X151695238Y-65182952D01*
X151123809Y-65754380D01*
X151742857Y-65754380D01*
%TO.C,TP11*%
X109961904Y-92952380D02*
X110533333Y-92952380D01*
X110247619Y-93952380D02*
X110247619Y-92952380D01*
X110866666Y-93952380D02*
X110866666Y-92952380D01*
X111247619Y-92952380D01*
X111342857Y-93000000D01*
X111390476Y-93047619D01*
X111438095Y-93142857D01*
X111438095Y-93285714D01*
X111390476Y-93380952D01*
X111342857Y-93428571D01*
X111247619Y-93476190D01*
X110866666Y-93476190D01*
X112390476Y-93952380D02*
X111819047Y-93952380D01*
X112104761Y-93952380D02*
X112104761Y-92952380D01*
X112009523Y-93095238D01*
X111914285Y-93190476D01*
X111819047Y-93238095D01*
X113342857Y-93952380D02*
X112771428Y-93952380D01*
X113057142Y-93952380D02*
X113057142Y-92952380D01*
X112961904Y-93095238D01*
X112866666Y-93190476D01*
X112771428Y-93238095D01*
%TO.C,TP10*%
X194161904Y-104952380D02*
X194733333Y-104952380D01*
X194447619Y-105952380D02*
X194447619Y-104952380D01*
X195066666Y-105952380D02*
X195066666Y-104952380D01*
X195447619Y-104952380D01*
X195542857Y-105000000D01*
X195590476Y-105047619D01*
X195638095Y-105142857D01*
X195638095Y-105285714D01*
X195590476Y-105380952D01*
X195542857Y-105428571D01*
X195447619Y-105476190D01*
X195066666Y-105476190D01*
X196590476Y-105952380D02*
X196019047Y-105952380D01*
X196304761Y-105952380D02*
X196304761Y-104952380D01*
X196209523Y-105095238D01*
X196114285Y-105190476D01*
X196019047Y-105238095D01*
X197209523Y-104952380D02*
X197304761Y-104952380D01*
X197400000Y-105000000D01*
X197447619Y-105047619D01*
X197495238Y-105142857D01*
X197542857Y-105333333D01*
X197542857Y-105571428D01*
X197495238Y-105761904D01*
X197447619Y-105857142D01*
X197400000Y-105904761D01*
X197304761Y-105952380D01*
X197209523Y-105952380D01*
X197114285Y-105904761D01*
X197066666Y-105857142D01*
X197019047Y-105761904D01*
X196971428Y-105571428D01*
X196971428Y-105333333D01*
X197019047Y-105142857D01*
X197066666Y-105047619D01*
X197114285Y-105000000D01*
X197209523Y-104952380D01*
%TO.C,TP9*%
X183138095Y-100752380D02*
X183709523Y-100752380D01*
X183423809Y-101752380D02*
X183423809Y-100752380D01*
X184042857Y-101752380D02*
X184042857Y-100752380D01*
X184423809Y-100752380D01*
X184519047Y-100800000D01*
X184566666Y-100847619D01*
X184614285Y-100942857D01*
X184614285Y-101085714D01*
X184566666Y-101180952D01*
X184519047Y-101228571D01*
X184423809Y-101276190D01*
X184042857Y-101276190D01*
X185090476Y-101752380D02*
X185280952Y-101752380D01*
X185376190Y-101704761D01*
X185423809Y-101657142D01*
X185519047Y-101514285D01*
X185566666Y-101323809D01*
X185566666Y-100942857D01*
X185519047Y-100847619D01*
X185471428Y-100800000D01*
X185376190Y-100752380D01*
X185185714Y-100752380D01*
X185090476Y-100800000D01*
X185042857Y-100847619D01*
X184995238Y-100942857D01*
X184995238Y-101180952D01*
X185042857Y-101276190D01*
X185090476Y-101323809D01*
X185185714Y-101371428D01*
X185376190Y-101371428D01*
X185471428Y-101323809D01*
X185519047Y-101276190D01*
X185566666Y-101180952D01*
%TO.C,TP8*%
X198238095Y-104952380D02*
X198809523Y-104952380D01*
X198523809Y-105952380D02*
X198523809Y-104952380D01*
X199142857Y-105952380D02*
X199142857Y-104952380D01*
X199523809Y-104952380D01*
X199619047Y-105000000D01*
X199666666Y-105047619D01*
X199714285Y-105142857D01*
X199714285Y-105285714D01*
X199666666Y-105380952D01*
X199619047Y-105428571D01*
X199523809Y-105476190D01*
X199142857Y-105476190D01*
X200285714Y-105380952D02*
X200190476Y-105333333D01*
X200142857Y-105285714D01*
X200095238Y-105190476D01*
X200095238Y-105142857D01*
X200142857Y-105047619D01*
X200190476Y-105000000D01*
X200285714Y-104952380D01*
X200476190Y-104952380D01*
X200571428Y-105000000D01*
X200619047Y-105047619D01*
X200666666Y-105142857D01*
X200666666Y-105190476D01*
X200619047Y-105285714D01*
X200571428Y-105333333D01*
X200476190Y-105380952D01*
X200285714Y-105380952D01*
X200190476Y-105428571D01*
X200142857Y-105476190D01*
X200095238Y-105571428D01*
X200095238Y-105761904D01*
X200142857Y-105857142D01*
X200190476Y-105904761D01*
X200285714Y-105952380D01*
X200476190Y-105952380D01*
X200571428Y-105904761D01*
X200619047Y-105857142D01*
X200666666Y-105761904D01*
X200666666Y-105571428D01*
X200619047Y-105476190D01*
X200571428Y-105428571D01*
X200476190Y-105380952D01*
%TO.C,TP7*%
X110738095Y-102852380D02*
X111309523Y-102852380D01*
X111023809Y-103852380D02*
X111023809Y-102852380D01*
X111642857Y-103852380D02*
X111642857Y-102852380D01*
X112023809Y-102852380D01*
X112119047Y-102900000D01*
X112166666Y-102947619D01*
X112214285Y-103042857D01*
X112214285Y-103185714D01*
X112166666Y-103280952D01*
X112119047Y-103328571D01*
X112023809Y-103376190D01*
X111642857Y-103376190D01*
X112547619Y-102852380D02*
X113214285Y-102852380D01*
X112785714Y-103852380D01*
%TO.C,TP6*%
X194338095Y-106852380D02*
X194909523Y-106852380D01*
X194623809Y-107852380D02*
X194623809Y-106852380D01*
X195242857Y-107852380D02*
X195242857Y-106852380D01*
X195623809Y-106852380D01*
X195719047Y-106900000D01*
X195766666Y-106947619D01*
X195814285Y-107042857D01*
X195814285Y-107185714D01*
X195766666Y-107280952D01*
X195719047Y-107328571D01*
X195623809Y-107376190D01*
X195242857Y-107376190D01*
X196671428Y-106852380D02*
X196480952Y-106852380D01*
X196385714Y-106900000D01*
X196338095Y-106947619D01*
X196242857Y-107090476D01*
X196195238Y-107280952D01*
X196195238Y-107661904D01*
X196242857Y-107757142D01*
X196290476Y-107804761D01*
X196385714Y-107852380D01*
X196576190Y-107852380D01*
X196671428Y-107804761D01*
X196719047Y-107757142D01*
X196766666Y-107661904D01*
X196766666Y-107423809D01*
X196719047Y-107328571D01*
X196671428Y-107280952D01*
X196576190Y-107233333D01*
X196385714Y-107233333D01*
X196290476Y-107280952D01*
X196242857Y-107328571D01*
X196195238Y-107423809D01*
%TO.C,TP5*%
X179338095Y-104552380D02*
X179909523Y-104552380D01*
X179623809Y-105552380D02*
X179623809Y-104552380D01*
X180242857Y-105552380D02*
X180242857Y-104552380D01*
X180623809Y-104552380D01*
X180719047Y-104600000D01*
X180766666Y-104647619D01*
X180814285Y-104742857D01*
X180814285Y-104885714D01*
X180766666Y-104980952D01*
X180719047Y-105028571D01*
X180623809Y-105076190D01*
X180242857Y-105076190D01*
X181719047Y-104552380D02*
X181242857Y-104552380D01*
X181195238Y-105028571D01*
X181242857Y-104980952D01*
X181338095Y-104933333D01*
X181576190Y-104933333D01*
X181671428Y-104980952D01*
X181719047Y-105028571D01*
X181766666Y-105123809D01*
X181766666Y-105361904D01*
X181719047Y-105457142D01*
X181671428Y-105504761D01*
X181576190Y-105552380D01*
X181338095Y-105552380D01*
X181242857Y-105504761D01*
X181195238Y-105457142D01*
%TO.C,TP4*%
X179138095Y-96254380D02*
X179709523Y-96254380D01*
X179423809Y-97254380D02*
X179423809Y-96254380D01*
X180042857Y-97254380D02*
X180042857Y-96254380D01*
X180423809Y-96254380D01*
X180519047Y-96302000D01*
X180566666Y-96349619D01*
X180614285Y-96444857D01*
X180614285Y-96587714D01*
X180566666Y-96682952D01*
X180519047Y-96730571D01*
X180423809Y-96778190D01*
X180042857Y-96778190D01*
X181471428Y-96587714D02*
X181471428Y-97254380D01*
X181233333Y-96206761D02*
X180995238Y-96921047D01*
X181614285Y-96921047D01*
%TO.C,TP3*%
X179038095Y-83054380D02*
X179609523Y-83054380D01*
X179323809Y-84054380D02*
X179323809Y-83054380D01*
X179942857Y-84054380D02*
X179942857Y-83054380D01*
X180323809Y-83054380D01*
X180419047Y-83102000D01*
X180466666Y-83149619D01*
X180514285Y-83244857D01*
X180514285Y-83387714D01*
X180466666Y-83482952D01*
X180419047Y-83530571D01*
X180323809Y-83578190D01*
X179942857Y-83578190D01*
X180847619Y-83054380D02*
X181466666Y-83054380D01*
X181133333Y-83435333D01*
X181276190Y-83435333D01*
X181371428Y-83482952D01*
X181419047Y-83530571D01*
X181466666Y-83625809D01*
X181466666Y-83863904D01*
X181419047Y-83959142D01*
X181371428Y-84006761D01*
X181276190Y-84054380D01*
X180990476Y-84054380D01*
X180895238Y-84006761D01*
X180847619Y-83959142D01*
%TO.C,SW6*%
X116666666Y-65354761D02*
X116809523Y-65402380D01*
X117047619Y-65402380D01*
X117142857Y-65354761D01*
X117190476Y-65307142D01*
X117238095Y-65211904D01*
X117238095Y-65116666D01*
X117190476Y-65021428D01*
X117142857Y-64973809D01*
X117047619Y-64926190D01*
X116857142Y-64878571D01*
X116761904Y-64830952D01*
X116714285Y-64783333D01*
X116666666Y-64688095D01*
X116666666Y-64592857D01*
X116714285Y-64497619D01*
X116761904Y-64450000D01*
X116857142Y-64402380D01*
X117095238Y-64402380D01*
X117238095Y-64450000D01*
X117571428Y-64402380D02*
X117809523Y-65402380D01*
X118000000Y-64688095D01*
X118190476Y-65402380D01*
X118428571Y-64402380D01*
X119238095Y-64402380D02*
X119047619Y-64402380D01*
X118952380Y-64450000D01*
X118904761Y-64497619D01*
X118809523Y-64640476D01*
X118761904Y-64830952D01*
X118761904Y-65211904D01*
X118809523Y-65307142D01*
X118857142Y-65354761D01*
X118952380Y-65402380D01*
X119142857Y-65402380D01*
X119238095Y-65354761D01*
X119285714Y-65307142D01*
X119333333Y-65211904D01*
X119333333Y-64973809D01*
X119285714Y-64878571D01*
X119238095Y-64830952D01*
X119142857Y-64783333D01*
X118952380Y-64783333D01*
X118857142Y-64830952D01*
X118809523Y-64878571D01*
X118761904Y-64973809D01*
%TO.C,R2*%
X185633333Y-128052380D02*
X185300000Y-127576190D01*
X185061904Y-128052380D02*
X185061904Y-127052380D01*
X185442857Y-127052380D01*
X185538095Y-127100000D01*
X185585714Y-127147619D01*
X185633333Y-127242857D01*
X185633333Y-127385714D01*
X185585714Y-127480952D01*
X185538095Y-127528571D01*
X185442857Y-127576190D01*
X185061904Y-127576190D01*
X186014285Y-127147619D02*
X186061904Y-127100000D01*
X186157142Y-127052380D01*
X186395238Y-127052380D01*
X186490476Y-127100000D01*
X186538095Y-127147619D01*
X186585714Y-127242857D01*
X186585714Y-127338095D01*
X186538095Y-127480952D01*
X185966666Y-128052380D01*
X186585714Y-128052380D01*
%TO.C,R1*%
X118133333Y-128052380D02*
X117800000Y-127576190D01*
X117561904Y-128052380D02*
X117561904Y-127052380D01*
X117942857Y-127052380D01*
X118038095Y-127100000D01*
X118085714Y-127147619D01*
X118133333Y-127242857D01*
X118133333Y-127385714D01*
X118085714Y-127480952D01*
X118038095Y-127528571D01*
X117942857Y-127576190D01*
X117561904Y-127576190D01*
X119085714Y-128052380D02*
X118514285Y-128052380D01*
X118800000Y-128052380D02*
X118800000Y-127052380D01*
X118704761Y-127195238D01*
X118609523Y-127290476D01*
X118514285Y-127338095D01*
%TO.C,D2*%
X185061904Y-130252380D02*
X185061904Y-129252380D01*
X185300000Y-129252380D01*
X185442857Y-129300000D01*
X185538095Y-129395238D01*
X185585714Y-129490476D01*
X185633333Y-129680952D01*
X185633333Y-129823809D01*
X185585714Y-130014285D01*
X185538095Y-130109523D01*
X185442857Y-130204761D01*
X185300000Y-130252380D01*
X185061904Y-130252380D01*
X186014285Y-129347619D02*
X186061904Y-129300000D01*
X186157142Y-129252380D01*
X186395238Y-129252380D01*
X186490476Y-129300000D01*
X186538095Y-129347619D01*
X186585714Y-129442857D01*
X186585714Y-129538095D01*
X186538095Y-129680952D01*
X185966666Y-130252380D01*
X186585714Y-130252380D01*
%TO.C,D1*%
X117561904Y-130252380D02*
X117561904Y-129252380D01*
X117800000Y-129252380D01*
X117942857Y-129300000D01*
X118038095Y-129395238D01*
X118085714Y-129490476D01*
X118133333Y-129680952D01*
X118133333Y-129823809D01*
X118085714Y-130014285D01*
X118038095Y-130109523D01*
X117942857Y-130204761D01*
X117800000Y-130252380D01*
X117561904Y-130252380D01*
X119085714Y-130252380D02*
X118514285Y-130252380D01*
X118800000Y-130252380D02*
X118800000Y-129252380D01*
X118704761Y-129395238D01*
X118609523Y-129490476D01*
X118514285Y-129538095D01*
%TO.C,R17*%
X193757142Y-73652380D02*
X193423809Y-73176190D01*
X193185714Y-73652380D02*
X193185714Y-72652380D01*
X193566666Y-72652380D01*
X193661904Y-72700000D01*
X193709523Y-72747619D01*
X193757142Y-72842857D01*
X193757142Y-72985714D01*
X193709523Y-73080952D01*
X193661904Y-73128571D01*
X193566666Y-73176190D01*
X193185714Y-73176190D01*
X194709523Y-73652380D02*
X194138095Y-73652380D01*
X194423809Y-73652380D02*
X194423809Y-72652380D01*
X194328571Y-72795238D01*
X194233333Y-72890476D01*
X194138095Y-72938095D01*
X195042857Y-72652380D02*
X195709523Y-72652380D01*
X195280952Y-73652380D01*
%TO.C,C11*%
X188257142Y-98037142D02*
X188209523Y-98084761D01*
X188066666Y-98132380D01*
X187971428Y-98132380D01*
X187828571Y-98084761D01*
X187733333Y-97989523D01*
X187685714Y-97894285D01*
X187638095Y-97703809D01*
X187638095Y-97560952D01*
X187685714Y-97370476D01*
X187733333Y-97275238D01*
X187828571Y-97180000D01*
X187971428Y-97132380D01*
X188066666Y-97132380D01*
X188209523Y-97180000D01*
X188257142Y-97227619D01*
X189209523Y-98132380D02*
X188638095Y-98132380D01*
X188923809Y-98132380D02*
X188923809Y-97132380D01*
X188828571Y-97275238D01*
X188733333Y-97370476D01*
X188638095Y-97418095D01*
X190161904Y-98132380D02*
X189590476Y-98132380D01*
X189876190Y-98132380D02*
X189876190Y-97132380D01*
X189780952Y-97275238D01*
X189685714Y-97370476D01*
X189590476Y-97418095D01*
%TO.C,Q1*%
X184804761Y-97147619D02*
X184709523Y-97100000D01*
X184614285Y-97004761D01*
X184471428Y-96861904D01*
X184376190Y-96814285D01*
X184280952Y-96814285D01*
X184328571Y-97052380D02*
X184233333Y-97004761D01*
X184138095Y-96909523D01*
X184090476Y-96719047D01*
X184090476Y-96385714D01*
X184138095Y-96195238D01*
X184233333Y-96100000D01*
X184328571Y-96052380D01*
X184519047Y-96052380D01*
X184614285Y-96100000D01*
X184709523Y-96195238D01*
X184757142Y-96385714D01*
X184757142Y-96719047D01*
X184709523Y-96909523D01*
X184614285Y-97004761D01*
X184519047Y-97052380D01*
X184328571Y-97052380D01*
X185709523Y-97052380D02*
X185138095Y-97052380D01*
X185423809Y-97052380D02*
X185423809Y-96052380D01*
X185328571Y-96195238D01*
X185233333Y-96290476D01*
X185138095Y-96338095D01*
%TO.C,R5*%
X154833333Y-120052380D02*
X154500000Y-119576190D01*
X154261904Y-120052380D02*
X154261904Y-119052380D01*
X154642857Y-119052380D01*
X154738095Y-119100000D01*
X154785714Y-119147619D01*
X154833333Y-119242857D01*
X154833333Y-119385714D01*
X154785714Y-119480952D01*
X154738095Y-119528571D01*
X154642857Y-119576190D01*
X154261904Y-119576190D01*
X155738095Y-119052380D02*
X155261904Y-119052380D01*
X155214285Y-119528571D01*
X155261904Y-119480952D01*
X155357142Y-119433333D01*
X155595238Y-119433333D01*
X155690476Y-119480952D01*
X155738095Y-119528571D01*
X155785714Y-119623809D01*
X155785714Y-119861904D01*
X155738095Y-119957142D01*
X155690476Y-120004761D01*
X155595238Y-120052380D01*
X155357142Y-120052380D01*
X155261904Y-120004761D01*
X155214285Y-119957142D01*
%TO.C,C2*%
X189933333Y-106177142D02*
X189885714Y-106224761D01*
X189742857Y-106272380D01*
X189647619Y-106272380D01*
X189504761Y-106224761D01*
X189409523Y-106129523D01*
X189361904Y-106034285D01*
X189314285Y-105843809D01*
X189314285Y-105700952D01*
X189361904Y-105510476D01*
X189409523Y-105415238D01*
X189504761Y-105320000D01*
X189647619Y-105272380D01*
X189742857Y-105272380D01*
X189885714Y-105320000D01*
X189933333Y-105367619D01*
X190314285Y-105367619D02*
X190361904Y-105320000D01*
X190457142Y-105272380D01*
X190695238Y-105272380D01*
X190790476Y-105320000D01*
X190838095Y-105367619D01*
X190885714Y-105462857D01*
X190885714Y-105558095D01*
X190838095Y-105700952D01*
X190266666Y-106272380D01*
X190885714Y-106272380D01*
%TO.C,C5*%
X110278221Y-92557142D02*
X110230602Y-92604761D01*
X110087745Y-92652380D01*
X109992507Y-92652380D01*
X109849649Y-92604761D01*
X109754411Y-92509523D01*
X109706792Y-92414285D01*
X109659173Y-92223809D01*
X109659173Y-92080952D01*
X109706792Y-91890476D01*
X109754411Y-91795238D01*
X109849649Y-91700000D01*
X109992507Y-91652380D01*
X110087745Y-91652380D01*
X110230602Y-91700000D01*
X110278221Y-91747619D01*
X111182983Y-91652380D02*
X110706792Y-91652380D01*
X110659173Y-92128571D01*
X110706792Y-92080952D01*
X110802030Y-92033333D01*
X111040126Y-92033333D01*
X111135364Y-92080952D01*
X111182983Y-92128571D01*
X111230602Y-92223809D01*
X111230602Y-92461904D01*
X111182983Y-92557142D01*
X111135364Y-92604761D01*
X111040126Y-92652380D01*
X110802030Y-92652380D01*
X110706792Y-92604761D01*
X110659173Y-92557142D01*
%TO.C,R27*%
X186052380Y-78442857D02*
X185576190Y-78776190D01*
X186052380Y-79014285D02*
X185052380Y-79014285D01*
X185052380Y-78633333D01*
X185100000Y-78538095D01*
X185147619Y-78490476D01*
X185242857Y-78442857D01*
X185385714Y-78442857D01*
X185480952Y-78490476D01*
X185528571Y-78538095D01*
X185576190Y-78633333D01*
X185576190Y-79014285D01*
X185147619Y-78061904D02*
X185100000Y-78014285D01*
X185052380Y-77919047D01*
X185052380Y-77680952D01*
X185100000Y-77585714D01*
X185147619Y-77538095D01*
X185242857Y-77490476D01*
X185338095Y-77490476D01*
X185480952Y-77538095D01*
X186052380Y-78109523D01*
X186052380Y-77490476D01*
X185052380Y-77157142D02*
X185052380Y-76490476D01*
X186052380Y-76919047D01*
%TO.C,U3*%
X107138095Y-77727380D02*
X107138095Y-78536904D01*
X107185714Y-78632142D01*
X107233333Y-78679761D01*
X107328571Y-78727380D01*
X107519047Y-78727380D01*
X107614285Y-78679761D01*
X107661904Y-78632142D01*
X107709523Y-78536904D01*
X107709523Y-77727380D01*
X108090476Y-77727380D02*
X108709523Y-77727380D01*
X108376190Y-78108333D01*
X108519047Y-78108333D01*
X108614285Y-78155952D01*
X108661904Y-78203571D01*
X108709523Y-78298809D01*
X108709523Y-78536904D01*
X108661904Y-78632142D01*
X108614285Y-78679761D01*
X108519047Y-78727380D01*
X108233333Y-78727380D01*
X108138095Y-78679761D01*
X108090476Y-78632142D01*
%TO.C,R21*%
X178602380Y-100142857D02*
X178126190Y-100476190D01*
X178602380Y-100714285D02*
X177602380Y-100714285D01*
X177602380Y-100333333D01*
X177650000Y-100238095D01*
X177697619Y-100190476D01*
X177792857Y-100142857D01*
X177935714Y-100142857D01*
X178030952Y-100190476D01*
X178078571Y-100238095D01*
X178126190Y-100333333D01*
X178126190Y-100714285D01*
X177697619Y-99761904D02*
X177650000Y-99714285D01*
X177602380Y-99619047D01*
X177602380Y-99380952D01*
X177650000Y-99285714D01*
X177697619Y-99238095D01*
X177792857Y-99190476D01*
X177888095Y-99190476D01*
X178030952Y-99238095D01*
X178602380Y-99809523D01*
X178602380Y-99190476D01*
X178602380Y-98238095D02*
X178602380Y-98809523D01*
X178602380Y-98523809D02*
X177602380Y-98523809D01*
X177745238Y-98619047D01*
X177840476Y-98714285D01*
X177888095Y-98809523D01*
%TO.C,U1*%
X125352380Y-76561904D02*
X126161904Y-76561904D01*
X126257142Y-76514285D01*
X126304761Y-76466666D01*
X126352380Y-76371428D01*
X126352380Y-76180952D01*
X126304761Y-76085714D01*
X126257142Y-76038095D01*
X126161904Y-75990476D01*
X125352380Y-75990476D01*
X126352380Y-74990476D02*
X126352380Y-75561904D01*
X126352380Y-75276190D02*
X125352380Y-75276190D01*
X125495238Y-75371428D01*
X125590476Y-75466666D01*
X125638095Y-75561904D01*
%TO.C,U4*%
X175652380Y-103461904D02*
X176461904Y-103461904D01*
X176557142Y-103414285D01*
X176604761Y-103366666D01*
X176652380Y-103271428D01*
X176652380Y-103080952D01*
X176604761Y-102985714D01*
X176557142Y-102938095D01*
X176461904Y-102890476D01*
X175652380Y-102890476D01*
X175985714Y-101985714D02*
X176652380Y-101985714D01*
X175604761Y-102223809D02*
X176319047Y-102461904D01*
X176319047Y-101842857D01*
%TO.C,Q6*%
X180704761Y-63775119D02*
X180609523Y-63727500D01*
X180514285Y-63632261D01*
X180371428Y-63489404D01*
X180276190Y-63441785D01*
X180180952Y-63441785D01*
X180228571Y-63679880D02*
X180133333Y-63632261D01*
X180038095Y-63537023D01*
X179990476Y-63346547D01*
X179990476Y-63013214D01*
X180038095Y-62822738D01*
X180133333Y-62727500D01*
X180228571Y-62679880D01*
X180419047Y-62679880D01*
X180514285Y-62727500D01*
X180609523Y-62822738D01*
X180657142Y-63013214D01*
X180657142Y-63346547D01*
X180609523Y-63537023D01*
X180514285Y-63632261D01*
X180419047Y-63679880D01*
X180228571Y-63679880D01*
X181514285Y-62679880D02*
X181323809Y-62679880D01*
X181228571Y-62727500D01*
X181180952Y-62775119D01*
X181085714Y-62917976D01*
X181038095Y-63108452D01*
X181038095Y-63489404D01*
X181085714Y-63584642D01*
X181133333Y-63632261D01*
X181228571Y-63679880D01*
X181419047Y-63679880D01*
X181514285Y-63632261D01*
X181561904Y-63584642D01*
X181609523Y-63489404D01*
X181609523Y-63251309D01*
X181561904Y-63156071D01*
X181514285Y-63108452D01*
X181419047Y-63060833D01*
X181228571Y-63060833D01*
X181133333Y-63108452D01*
X181085714Y-63156071D01*
X181038095Y-63251309D01*
%TO.C,R22*%
X179852380Y-78442857D02*
X179376190Y-78776190D01*
X179852380Y-79014285D02*
X178852380Y-79014285D01*
X178852380Y-78633333D01*
X178900000Y-78538095D01*
X178947619Y-78490476D01*
X179042857Y-78442857D01*
X179185714Y-78442857D01*
X179280952Y-78490476D01*
X179328571Y-78538095D01*
X179376190Y-78633333D01*
X179376190Y-79014285D01*
X178947619Y-78061904D02*
X178900000Y-78014285D01*
X178852380Y-77919047D01*
X178852380Y-77680952D01*
X178900000Y-77585714D01*
X178947619Y-77538095D01*
X179042857Y-77490476D01*
X179138095Y-77490476D01*
X179280952Y-77538095D01*
X179852380Y-78109523D01*
X179852380Y-77490476D01*
X178947619Y-77109523D02*
X178900000Y-77061904D01*
X178852380Y-76966666D01*
X178852380Y-76728571D01*
X178900000Y-76633333D01*
X178947619Y-76585714D01*
X179042857Y-76538095D01*
X179138095Y-76538095D01*
X179280952Y-76585714D01*
X179852380Y-77157142D01*
X179852380Y-76538095D01*
%TO.C,Q5*%
X180704761Y-56775119D02*
X180609523Y-56727500D01*
X180514285Y-56632261D01*
X180371428Y-56489404D01*
X180276190Y-56441785D01*
X180180952Y-56441785D01*
X180228571Y-56679880D02*
X180133333Y-56632261D01*
X180038095Y-56537023D01*
X179990476Y-56346547D01*
X179990476Y-56013214D01*
X180038095Y-55822738D01*
X180133333Y-55727500D01*
X180228571Y-55679880D01*
X180419047Y-55679880D01*
X180514285Y-55727500D01*
X180609523Y-55822738D01*
X180657142Y-56013214D01*
X180657142Y-56346547D01*
X180609523Y-56537023D01*
X180514285Y-56632261D01*
X180419047Y-56679880D01*
X180228571Y-56679880D01*
X181561904Y-55679880D02*
X181085714Y-55679880D01*
X181038095Y-56156071D01*
X181085714Y-56108452D01*
X181180952Y-56060833D01*
X181419047Y-56060833D01*
X181514285Y-56108452D01*
X181561904Y-56156071D01*
X181609523Y-56251309D01*
X181609523Y-56489404D01*
X181561904Y-56584642D01*
X181514285Y-56632261D01*
X181419047Y-56679880D01*
X181180952Y-56679880D01*
X181085714Y-56632261D01*
X181038095Y-56584642D01*
%TO.C,R16*%
X193737142Y-70552380D02*
X193403809Y-70076190D01*
X193165714Y-70552380D02*
X193165714Y-69552380D01*
X193546666Y-69552380D01*
X193641904Y-69600000D01*
X193689523Y-69647619D01*
X193737142Y-69742857D01*
X193737142Y-69885714D01*
X193689523Y-69980952D01*
X193641904Y-70028571D01*
X193546666Y-70076190D01*
X193165714Y-70076190D01*
X194689523Y-70552380D02*
X194118095Y-70552380D01*
X194403809Y-70552380D02*
X194403809Y-69552380D01*
X194308571Y-69695238D01*
X194213333Y-69790476D01*
X194118095Y-69838095D01*
X195546666Y-69552380D02*
X195356190Y-69552380D01*
X195260952Y-69600000D01*
X195213333Y-69647619D01*
X195118095Y-69790476D01*
X195070476Y-69980952D01*
X195070476Y-70361904D01*
X195118095Y-70457142D01*
X195165714Y-70504761D01*
X195260952Y-70552380D01*
X195451428Y-70552380D01*
X195546666Y-70504761D01*
X195594285Y-70457142D01*
X195641904Y-70361904D01*
X195641904Y-70123809D01*
X195594285Y-70028571D01*
X195546666Y-69980952D01*
X195451428Y-69933333D01*
X195260952Y-69933333D01*
X195165714Y-69980952D01*
X195118095Y-70028571D01*
X195070476Y-70123809D01*
%TO.C,R28*%
X183952380Y-71442857D02*
X183476190Y-71776190D01*
X183952380Y-72014285D02*
X182952380Y-72014285D01*
X182952380Y-71633333D01*
X183000000Y-71538095D01*
X183047619Y-71490476D01*
X183142857Y-71442857D01*
X183285714Y-71442857D01*
X183380952Y-71490476D01*
X183428571Y-71538095D01*
X183476190Y-71633333D01*
X183476190Y-72014285D01*
X183047619Y-71061904D02*
X183000000Y-71014285D01*
X182952380Y-70919047D01*
X182952380Y-70680952D01*
X183000000Y-70585714D01*
X183047619Y-70538095D01*
X183142857Y-70490476D01*
X183238095Y-70490476D01*
X183380952Y-70538095D01*
X183952380Y-71109523D01*
X183952380Y-70490476D01*
X183380952Y-69919047D02*
X183333333Y-70014285D01*
X183285714Y-70061904D01*
X183190476Y-70109523D01*
X183142857Y-70109523D01*
X183047619Y-70061904D01*
X183000000Y-70014285D01*
X182952380Y-69919047D01*
X182952380Y-69728571D01*
X183000000Y-69633333D01*
X183047619Y-69585714D01*
X183142857Y-69538095D01*
X183190476Y-69538095D01*
X183285714Y-69585714D01*
X183333333Y-69633333D01*
X183380952Y-69728571D01*
X183380952Y-69919047D01*
X183428571Y-70014285D01*
X183476190Y-70061904D01*
X183571428Y-70109523D01*
X183761904Y-70109523D01*
X183857142Y-70061904D01*
X183904761Y-70014285D01*
X183952380Y-69919047D01*
X183952380Y-69728571D01*
X183904761Y-69633333D01*
X183857142Y-69585714D01*
X183761904Y-69538095D01*
X183571428Y-69538095D01*
X183476190Y-69585714D01*
X183428571Y-69633333D01*
X183380952Y-69728571D01*
%TO.C,R25*%
X181952380Y-78442857D02*
X181476190Y-78776190D01*
X181952380Y-79014285D02*
X180952380Y-79014285D01*
X180952380Y-78633333D01*
X181000000Y-78538095D01*
X181047619Y-78490476D01*
X181142857Y-78442857D01*
X181285714Y-78442857D01*
X181380952Y-78490476D01*
X181428571Y-78538095D01*
X181476190Y-78633333D01*
X181476190Y-79014285D01*
X181047619Y-78061904D02*
X181000000Y-78014285D01*
X180952380Y-77919047D01*
X180952380Y-77680952D01*
X181000000Y-77585714D01*
X181047619Y-77538095D01*
X181142857Y-77490476D01*
X181238095Y-77490476D01*
X181380952Y-77538095D01*
X181952380Y-78109523D01*
X181952380Y-77490476D01*
X180952380Y-76585714D02*
X180952380Y-77061904D01*
X181428571Y-77109523D01*
X181380952Y-77061904D01*
X181333333Y-76966666D01*
X181333333Y-76728571D01*
X181380952Y-76633333D01*
X181428571Y-76585714D01*
X181523809Y-76538095D01*
X181761904Y-76538095D01*
X181857142Y-76585714D01*
X181904761Y-76633333D01*
X181952380Y-76728571D01*
X181952380Y-76966666D01*
X181904761Y-77061904D01*
X181857142Y-77109523D01*
%TO.C,R19*%
X193737142Y-79852380D02*
X193403809Y-79376190D01*
X193165714Y-79852380D02*
X193165714Y-78852380D01*
X193546666Y-78852380D01*
X193641904Y-78900000D01*
X193689523Y-78947619D01*
X193737142Y-79042857D01*
X193737142Y-79185714D01*
X193689523Y-79280952D01*
X193641904Y-79328571D01*
X193546666Y-79376190D01*
X193165714Y-79376190D01*
X194689523Y-79852380D02*
X194118095Y-79852380D01*
X194403809Y-79852380D02*
X194403809Y-78852380D01*
X194308571Y-78995238D01*
X194213333Y-79090476D01*
X194118095Y-79138095D01*
X195165714Y-79852380D02*
X195356190Y-79852380D01*
X195451428Y-79804761D01*
X195499047Y-79757142D01*
X195594285Y-79614285D01*
X195641904Y-79423809D01*
X195641904Y-79042857D01*
X195594285Y-78947619D01*
X195546666Y-78900000D01*
X195451428Y-78852380D01*
X195260952Y-78852380D01*
X195165714Y-78900000D01*
X195118095Y-78947619D01*
X195070476Y-79042857D01*
X195070476Y-79280952D01*
X195118095Y-79376190D01*
X195165714Y-79423809D01*
X195260952Y-79471428D01*
X195451428Y-79471428D01*
X195546666Y-79423809D01*
X195594285Y-79376190D01*
X195641904Y-79280952D01*
%TO.C,C1*%
X113733333Y-107857142D02*
X113685714Y-107904761D01*
X113542857Y-107952380D01*
X113447619Y-107952380D01*
X113304761Y-107904761D01*
X113209523Y-107809523D01*
X113161904Y-107714285D01*
X113114285Y-107523809D01*
X113114285Y-107380952D01*
X113161904Y-107190476D01*
X113209523Y-107095238D01*
X113304761Y-107000000D01*
X113447619Y-106952380D01*
X113542857Y-106952380D01*
X113685714Y-107000000D01*
X113733333Y-107047619D01*
X114685714Y-107952380D02*
X114114285Y-107952380D01*
X114400000Y-107952380D02*
X114400000Y-106952380D01*
X114304761Y-107095238D01*
X114209523Y-107190476D01*
X114114285Y-107238095D01*
%TO.C,D11*%
X171252380Y-63414285D02*
X170252380Y-63414285D01*
X170252380Y-63176190D01*
X170300000Y-63033333D01*
X170395238Y-62938095D01*
X170490476Y-62890476D01*
X170680952Y-62842857D01*
X170823809Y-62842857D01*
X171014285Y-62890476D01*
X171109523Y-62938095D01*
X171204761Y-63033333D01*
X171252380Y-63176190D01*
X171252380Y-63414285D01*
X171252380Y-61890476D02*
X171252380Y-62461904D01*
X171252380Y-62176190D02*
X170252380Y-62176190D01*
X170395238Y-62271428D01*
X170490476Y-62366666D01*
X170538095Y-62461904D01*
X171252380Y-60938095D02*
X171252380Y-61509523D01*
X171252380Y-61223809D02*
X170252380Y-61223809D01*
X170395238Y-61319047D01*
X170490476Y-61414285D01*
X170538095Y-61509523D01*
%TO.C,SW5*%
X126949761Y-126823333D02*
X126997380Y-126680476D01*
X126997380Y-126442380D01*
X126949761Y-126347142D01*
X126902142Y-126299523D01*
X126806904Y-126251904D01*
X126711666Y-126251904D01*
X126616428Y-126299523D01*
X126568809Y-126347142D01*
X126521190Y-126442380D01*
X126473571Y-126632857D01*
X126425952Y-126728095D01*
X126378333Y-126775714D01*
X126283095Y-126823333D01*
X126187857Y-126823333D01*
X126092619Y-126775714D01*
X126045000Y-126728095D01*
X125997380Y-126632857D01*
X125997380Y-126394761D01*
X126045000Y-126251904D01*
X125997380Y-125918571D02*
X126997380Y-125680476D01*
X126283095Y-125490000D01*
X126997380Y-125299523D01*
X125997380Y-125061428D01*
X125997380Y-124204285D02*
X125997380Y-124680476D01*
X126473571Y-124728095D01*
X126425952Y-124680476D01*
X126378333Y-124585238D01*
X126378333Y-124347142D01*
X126425952Y-124251904D01*
X126473571Y-124204285D01*
X126568809Y-124156666D01*
X126806904Y-124156666D01*
X126902142Y-124204285D01*
X126949761Y-124251904D01*
X126997380Y-124347142D01*
X126997380Y-124585238D01*
X126949761Y-124680476D01*
X126902142Y-124728095D01*
%TO.C,C8*%
X153633333Y-63357142D02*
X153585714Y-63404761D01*
X153442857Y-63452380D01*
X153347619Y-63452380D01*
X153204761Y-63404761D01*
X153109523Y-63309523D01*
X153061904Y-63214285D01*
X153014285Y-63023809D01*
X153014285Y-62880952D01*
X153061904Y-62690476D01*
X153109523Y-62595238D01*
X153204761Y-62500000D01*
X153347619Y-62452380D01*
X153442857Y-62452380D01*
X153585714Y-62500000D01*
X153633333Y-62547619D01*
X154204761Y-62880952D02*
X154109523Y-62833333D01*
X154061904Y-62785714D01*
X154014285Y-62690476D01*
X154014285Y-62642857D01*
X154061904Y-62547619D01*
X154109523Y-62500000D01*
X154204761Y-62452380D01*
X154395238Y-62452380D01*
X154490476Y-62500000D01*
X154538095Y-62547619D01*
X154585714Y-62642857D01*
X154585714Y-62690476D01*
X154538095Y-62785714D01*
X154490476Y-62833333D01*
X154395238Y-62880952D01*
X154204761Y-62880952D01*
X154109523Y-62928571D01*
X154061904Y-62976190D01*
X154014285Y-63071428D01*
X154014285Y-63261904D01*
X154061904Y-63357142D01*
X154109523Y-63404761D01*
X154204761Y-63452380D01*
X154395238Y-63452380D01*
X154490476Y-63404761D01*
X154538095Y-63357142D01*
X154585714Y-63261904D01*
X154585714Y-63071428D01*
X154538095Y-62976190D01*
X154490476Y-62928571D01*
X154395238Y-62880952D01*
%TO.C,R13*%
X178952380Y-89342857D02*
X178476190Y-89676190D01*
X178952380Y-89914285D02*
X177952380Y-89914285D01*
X177952380Y-89533333D01*
X178000000Y-89438095D01*
X178047619Y-89390476D01*
X178142857Y-89342857D01*
X178285714Y-89342857D01*
X178380952Y-89390476D01*
X178428571Y-89438095D01*
X178476190Y-89533333D01*
X178476190Y-89914285D01*
X178952380Y-88390476D02*
X178952380Y-88961904D01*
X178952380Y-88676190D02*
X177952380Y-88676190D01*
X178095238Y-88771428D01*
X178190476Y-88866666D01*
X178238095Y-88961904D01*
X177952380Y-88057142D02*
X177952380Y-87438095D01*
X178333333Y-87771428D01*
X178333333Y-87628571D01*
X178380952Y-87533333D01*
X178428571Y-87485714D01*
X178523809Y-87438095D01*
X178761904Y-87438095D01*
X178857142Y-87485714D01*
X178904761Y-87533333D01*
X178952380Y-87628571D01*
X178952380Y-87914285D01*
X178904761Y-88009523D01*
X178857142Y-88057142D01*
%TO.C,R15*%
X191757142Y-86352380D02*
X191423809Y-85876190D01*
X191185714Y-86352380D02*
X191185714Y-85352380D01*
X191566666Y-85352380D01*
X191661904Y-85400000D01*
X191709523Y-85447619D01*
X191757142Y-85542857D01*
X191757142Y-85685714D01*
X191709523Y-85780952D01*
X191661904Y-85828571D01*
X191566666Y-85876190D01*
X191185714Y-85876190D01*
X192709523Y-86352380D02*
X192138095Y-86352380D01*
X192423809Y-86352380D02*
X192423809Y-85352380D01*
X192328571Y-85495238D01*
X192233333Y-85590476D01*
X192138095Y-85638095D01*
X193614285Y-85352380D02*
X193138095Y-85352380D01*
X193090476Y-85828571D01*
X193138095Y-85780952D01*
X193233333Y-85733333D01*
X193471428Y-85733333D01*
X193566666Y-85780952D01*
X193614285Y-85828571D01*
X193661904Y-85923809D01*
X193661904Y-86161904D01*
X193614285Y-86257142D01*
X193566666Y-86304761D01*
X193471428Y-86352380D01*
X193233333Y-86352380D01*
X193138095Y-86304761D01*
X193090476Y-86257142D01*
%TO.C,C4*%
X171833333Y-107837142D02*
X171785714Y-107884761D01*
X171642857Y-107932380D01*
X171547619Y-107932380D01*
X171404761Y-107884761D01*
X171309523Y-107789523D01*
X171261904Y-107694285D01*
X171214285Y-107503809D01*
X171214285Y-107360952D01*
X171261904Y-107170476D01*
X171309523Y-107075238D01*
X171404761Y-106980000D01*
X171547619Y-106932380D01*
X171642857Y-106932380D01*
X171785714Y-106980000D01*
X171833333Y-107027619D01*
X172690476Y-107265714D02*
X172690476Y-107932380D01*
X172452380Y-106884761D02*
X172214285Y-107599047D01*
X172833333Y-107599047D01*
%TO.C,R23*%
X179852380Y-71442857D02*
X179376190Y-71776190D01*
X179852380Y-72014285D02*
X178852380Y-72014285D01*
X178852380Y-71633333D01*
X178900000Y-71538095D01*
X178947619Y-71490476D01*
X179042857Y-71442857D01*
X179185714Y-71442857D01*
X179280952Y-71490476D01*
X179328571Y-71538095D01*
X179376190Y-71633333D01*
X179376190Y-72014285D01*
X178947619Y-71061904D02*
X178900000Y-71014285D01*
X178852380Y-70919047D01*
X178852380Y-70680952D01*
X178900000Y-70585714D01*
X178947619Y-70538095D01*
X179042857Y-70490476D01*
X179138095Y-70490476D01*
X179280952Y-70538095D01*
X179852380Y-71109523D01*
X179852380Y-70490476D01*
X178852380Y-70157142D02*
X178852380Y-69538095D01*
X179233333Y-69871428D01*
X179233333Y-69728571D01*
X179280952Y-69633333D01*
X179328571Y-69585714D01*
X179423809Y-69538095D01*
X179661904Y-69538095D01*
X179757142Y-69585714D01*
X179804761Y-69633333D01*
X179852380Y-69728571D01*
X179852380Y-70014285D01*
X179804761Y-70109523D01*
X179757142Y-70157142D01*
%TO.C,C9*%
X122233333Y-85957142D02*
X122185714Y-86004761D01*
X122042857Y-86052380D01*
X121947619Y-86052380D01*
X121804761Y-86004761D01*
X121709523Y-85909523D01*
X121661904Y-85814285D01*
X121614285Y-85623809D01*
X121614285Y-85480952D01*
X121661904Y-85290476D01*
X121709523Y-85195238D01*
X121804761Y-85100000D01*
X121947619Y-85052380D01*
X122042857Y-85052380D01*
X122185714Y-85100000D01*
X122233333Y-85147619D01*
X122709523Y-86052380D02*
X122900000Y-86052380D01*
X122995238Y-86004761D01*
X123042857Y-85957142D01*
X123138095Y-85814285D01*
X123185714Y-85623809D01*
X123185714Y-85242857D01*
X123138095Y-85147619D01*
X123090476Y-85100000D01*
X122995238Y-85052380D01*
X122804761Y-85052380D01*
X122709523Y-85100000D01*
X122661904Y-85147619D01*
X122614285Y-85242857D01*
X122614285Y-85480952D01*
X122661904Y-85576190D01*
X122709523Y-85623809D01*
X122804761Y-85671428D01*
X122995238Y-85671428D01*
X123090476Y-85623809D01*
X123138095Y-85576190D01*
X123185714Y-85480952D01*
%TO.C,D10*%
X171252380Y-67314285D02*
X170252380Y-67314285D01*
X170252380Y-67076190D01*
X170300000Y-66933333D01*
X170395238Y-66838095D01*
X170490476Y-66790476D01*
X170680952Y-66742857D01*
X170823809Y-66742857D01*
X171014285Y-66790476D01*
X171109523Y-66838095D01*
X171204761Y-66933333D01*
X171252380Y-67076190D01*
X171252380Y-67314285D01*
X171252380Y-65790476D02*
X171252380Y-66361904D01*
X171252380Y-66076190D02*
X170252380Y-66076190D01*
X170395238Y-66171428D01*
X170490476Y-66266666D01*
X170538095Y-66361904D01*
X170252380Y-65171428D02*
X170252380Y-65076190D01*
X170300000Y-64980952D01*
X170347619Y-64933333D01*
X170442857Y-64885714D01*
X170633333Y-64838095D01*
X170871428Y-64838095D01*
X171061904Y-64885714D01*
X171157142Y-64933333D01*
X171204761Y-64980952D01*
X171252380Y-65076190D01*
X171252380Y-65171428D01*
X171204761Y-65266666D01*
X171157142Y-65314285D01*
X171061904Y-65361904D01*
X170871428Y-65409523D01*
X170633333Y-65409523D01*
X170442857Y-65361904D01*
X170347619Y-65314285D01*
X170300000Y-65266666D01*
X170252380Y-65171428D01*
%TO.C,R14*%
X191557142Y-98152380D02*
X191223809Y-97676190D01*
X190985714Y-98152380D02*
X190985714Y-97152380D01*
X191366666Y-97152380D01*
X191461904Y-97200000D01*
X191509523Y-97247619D01*
X191557142Y-97342857D01*
X191557142Y-97485714D01*
X191509523Y-97580952D01*
X191461904Y-97628571D01*
X191366666Y-97676190D01*
X190985714Y-97676190D01*
X192509523Y-98152380D02*
X191938095Y-98152380D01*
X192223809Y-98152380D02*
X192223809Y-97152380D01*
X192128571Y-97295238D01*
X192033333Y-97390476D01*
X191938095Y-97438095D01*
X193366666Y-97485714D02*
X193366666Y-98152380D01*
X193128571Y-97104761D02*
X192890476Y-97819047D01*
X193509523Y-97819047D01*
%TO.C,Q3*%
X160204761Y-56775119D02*
X160109523Y-56727500D01*
X160014285Y-56632261D01*
X159871428Y-56489404D01*
X159776190Y-56441785D01*
X159680952Y-56441785D01*
X159728571Y-56679880D02*
X159633333Y-56632261D01*
X159538095Y-56537023D01*
X159490476Y-56346547D01*
X159490476Y-56013214D01*
X159538095Y-55822738D01*
X159633333Y-55727500D01*
X159728571Y-55679880D01*
X159919047Y-55679880D01*
X160014285Y-55727500D01*
X160109523Y-55822738D01*
X160157142Y-56013214D01*
X160157142Y-56346547D01*
X160109523Y-56537023D01*
X160014285Y-56632261D01*
X159919047Y-56679880D01*
X159728571Y-56679880D01*
X160490476Y-55679880D02*
X161109523Y-55679880D01*
X160776190Y-56060833D01*
X160919047Y-56060833D01*
X161014285Y-56108452D01*
X161061904Y-56156071D01*
X161109523Y-56251309D01*
X161109523Y-56489404D01*
X161061904Y-56584642D01*
X161014285Y-56632261D01*
X160919047Y-56679880D01*
X160633333Y-56679880D01*
X160538095Y-56632261D01*
X160490476Y-56584642D01*
%TO.C,H1*%
X106338095Y-127352380D02*
X106338095Y-126352380D01*
X106338095Y-126828571D02*
X106909523Y-126828571D01*
X106909523Y-127352380D02*
X106909523Y-126352380D01*
X107909523Y-127352380D02*
X107338095Y-127352380D01*
X107623809Y-127352380D02*
X107623809Y-126352380D01*
X107528571Y-126495238D01*
X107433333Y-126590476D01*
X107338095Y-126638095D01*
%TO.C,D5*%
X154261904Y-121452380D02*
X154261904Y-120452380D01*
X154500000Y-120452380D01*
X154642857Y-120500000D01*
X154738095Y-120595238D01*
X154785714Y-120690476D01*
X154833333Y-120880952D01*
X154833333Y-121023809D01*
X154785714Y-121214285D01*
X154738095Y-121309523D01*
X154642857Y-121404761D01*
X154500000Y-121452380D01*
X154261904Y-121452380D01*
X155738095Y-120452380D02*
X155261904Y-120452380D01*
X155214285Y-120928571D01*
X155261904Y-120880952D01*
X155357142Y-120833333D01*
X155595238Y-120833333D01*
X155690476Y-120880952D01*
X155738095Y-120928571D01*
X155785714Y-121023809D01*
X155785714Y-121261904D01*
X155738095Y-121357142D01*
X155690476Y-121404761D01*
X155595238Y-121452380D01*
X155357142Y-121452380D01*
X155261904Y-121404761D01*
X155214285Y-121357142D01*
%TO.C,R12*%
X176957142Y-93352380D02*
X176623809Y-92876190D01*
X176385714Y-93352380D02*
X176385714Y-92352380D01*
X176766666Y-92352380D01*
X176861904Y-92400000D01*
X176909523Y-92447619D01*
X176957142Y-92542857D01*
X176957142Y-92685714D01*
X176909523Y-92780952D01*
X176861904Y-92828571D01*
X176766666Y-92876190D01*
X176385714Y-92876190D01*
X177909523Y-93352380D02*
X177338095Y-93352380D01*
X177623809Y-93352380D02*
X177623809Y-92352380D01*
X177528571Y-92495238D01*
X177433333Y-92590476D01*
X177338095Y-92638095D01*
X178290476Y-92447619D02*
X178338095Y-92400000D01*
X178433333Y-92352380D01*
X178671428Y-92352380D01*
X178766666Y-92400000D01*
X178814285Y-92447619D01*
X178861904Y-92542857D01*
X178861904Y-92638095D01*
X178814285Y-92780952D01*
X178242857Y-93352380D01*
X178861904Y-93352380D01*
%TO.C,D7*%
X151261904Y-121452380D02*
X151261904Y-120452380D01*
X151500000Y-120452380D01*
X151642857Y-120500000D01*
X151738095Y-120595238D01*
X151785714Y-120690476D01*
X151833333Y-120880952D01*
X151833333Y-121023809D01*
X151785714Y-121214285D01*
X151738095Y-121309523D01*
X151642857Y-121404761D01*
X151500000Y-121452380D01*
X151261904Y-121452380D01*
X152166666Y-120452380D02*
X152833333Y-120452380D01*
X152404761Y-121452380D01*
%TO.C,Q4*%
X160204761Y-63775119D02*
X160109523Y-63727500D01*
X160014285Y-63632261D01*
X159871428Y-63489404D01*
X159776190Y-63441785D01*
X159680952Y-63441785D01*
X159728571Y-63679880D02*
X159633333Y-63632261D01*
X159538095Y-63537023D01*
X159490476Y-63346547D01*
X159490476Y-63013214D01*
X159538095Y-62822738D01*
X159633333Y-62727500D01*
X159728571Y-62679880D01*
X159919047Y-62679880D01*
X160014285Y-62727500D01*
X160109523Y-62822738D01*
X160157142Y-63013214D01*
X160157142Y-63346547D01*
X160109523Y-63537023D01*
X160014285Y-63632261D01*
X159919047Y-63679880D01*
X159728571Y-63679880D01*
X161014285Y-63013214D02*
X161014285Y-63679880D01*
X160776190Y-62632261D02*
X160538095Y-63346547D01*
X161157142Y-63346547D01*
%TO.C,R26*%
X186052380Y-71442857D02*
X185576190Y-71776190D01*
X186052380Y-72014285D02*
X185052380Y-72014285D01*
X185052380Y-71633333D01*
X185100000Y-71538095D01*
X185147619Y-71490476D01*
X185242857Y-71442857D01*
X185385714Y-71442857D01*
X185480952Y-71490476D01*
X185528571Y-71538095D01*
X185576190Y-71633333D01*
X185576190Y-72014285D01*
X185147619Y-71061904D02*
X185100000Y-71014285D01*
X185052380Y-70919047D01*
X185052380Y-70680952D01*
X185100000Y-70585714D01*
X185147619Y-70538095D01*
X185242857Y-70490476D01*
X185338095Y-70490476D01*
X185480952Y-70538095D01*
X186052380Y-71109523D01*
X186052380Y-70490476D01*
X185052380Y-69633333D02*
X185052380Y-69823809D01*
X185100000Y-69919047D01*
X185147619Y-69966666D01*
X185290476Y-70061904D01*
X185480952Y-70109523D01*
X185861904Y-70109523D01*
X185957142Y-70061904D01*
X186004761Y-70014285D01*
X186052380Y-69919047D01*
X186052380Y-69728571D01*
X186004761Y-69633333D01*
X185957142Y-69585714D01*
X185861904Y-69538095D01*
X185623809Y-69538095D01*
X185528571Y-69585714D01*
X185480952Y-69633333D01*
X185433333Y-69728571D01*
X185433333Y-69919047D01*
X185480952Y-70014285D01*
X185528571Y-70061904D01*
X185623809Y-70109523D01*
%TO.C,C12*%
X188257142Y-86257142D02*
X188209523Y-86304761D01*
X188066666Y-86352380D01*
X187971428Y-86352380D01*
X187828571Y-86304761D01*
X187733333Y-86209523D01*
X187685714Y-86114285D01*
X187638095Y-85923809D01*
X187638095Y-85780952D01*
X187685714Y-85590476D01*
X187733333Y-85495238D01*
X187828571Y-85400000D01*
X187971428Y-85352380D01*
X188066666Y-85352380D01*
X188209523Y-85400000D01*
X188257142Y-85447619D01*
X189209523Y-86352380D02*
X188638095Y-86352380D01*
X188923809Y-86352380D02*
X188923809Y-85352380D01*
X188828571Y-85495238D01*
X188733333Y-85590476D01*
X188638095Y-85638095D01*
X189590476Y-85447619D02*
X189638095Y-85400000D01*
X189733333Y-85352380D01*
X189971428Y-85352380D01*
X190066666Y-85400000D01*
X190114285Y-85447619D01*
X190161904Y-85542857D01*
X190161904Y-85638095D01*
X190114285Y-85780952D01*
X189542857Y-86352380D01*
X190161904Y-86352380D01*
%TO.C,C6*%
X105133333Y-91757142D02*
X105085714Y-91804761D01*
X104942857Y-91852380D01*
X104847619Y-91852380D01*
X104704761Y-91804761D01*
X104609523Y-91709523D01*
X104561904Y-91614285D01*
X104514285Y-91423809D01*
X104514285Y-91280952D01*
X104561904Y-91090476D01*
X104609523Y-90995238D01*
X104704761Y-90900000D01*
X104847619Y-90852380D01*
X104942857Y-90852380D01*
X105085714Y-90900000D01*
X105133333Y-90947619D01*
X105990476Y-90852380D02*
X105800000Y-90852380D01*
X105704761Y-90900000D01*
X105657142Y-90947619D01*
X105561904Y-91090476D01*
X105514285Y-91280952D01*
X105514285Y-91661904D01*
X105561904Y-91757142D01*
X105609523Y-91804761D01*
X105704761Y-91852380D01*
X105895238Y-91852380D01*
X105990476Y-91804761D01*
X106038095Y-91757142D01*
X106085714Y-91661904D01*
X106085714Y-91423809D01*
X106038095Y-91328571D01*
X105990476Y-91280952D01*
X105895238Y-91233333D01*
X105704761Y-91233333D01*
X105609523Y-91280952D01*
X105561904Y-91328571D01*
X105514285Y-91423809D01*
%TO.C,Q2*%
X184804761Y-87747619D02*
X184709523Y-87700000D01*
X184614285Y-87604761D01*
X184471428Y-87461904D01*
X184376190Y-87414285D01*
X184280952Y-87414285D01*
X184328571Y-87652380D02*
X184233333Y-87604761D01*
X184138095Y-87509523D01*
X184090476Y-87319047D01*
X184090476Y-86985714D01*
X184138095Y-86795238D01*
X184233333Y-86700000D01*
X184328571Y-86652380D01*
X184519047Y-86652380D01*
X184614285Y-86700000D01*
X184709523Y-86795238D01*
X184757142Y-86985714D01*
X184757142Y-87319047D01*
X184709523Y-87509523D01*
X184614285Y-87604761D01*
X184519047Y-87652380D01*
X184328571Y-87652380D01*
X185138095Y-86747619D02*
X185185714Y-86700000D01*
X185280952Y-86652380D01*
X185519047Y-86652380D01*
X185614285Y-86700000D01*
X185661904Y-86747619D01*
X185709523Y-86842857D01*
X185709523Y-86938095D01*
X185661904Y-87080952D01*
X185090476Y-87652380D01*
X185709523Y-87652380D01*
%TO.C,H2*%
X106238095Y-60252380D02*
X106238095Y-59252380D01*
X106238095Y-59728571D02*
X106809523Y-59728571D01*
X106809523Y-60252380D02*
X106809523Y-59252380D01*
X107238095Y-59347619D02*
X107285714Y-59300000D01*
X107380952Y-59252380D01*
X107619047Y-59252380D01*
X107714285Y-59300000D01*
X107761904Y-59347619D01*
X107809523Y-59442857D01*
X107809523Y-59538095D01*
X107761904Y-59680952D01*
X107190476Y-60252380D01*
X107809523Y-60252380D01*
%TO.C,SW3*%
X165166666Y-108204761D02*
X165309523Y-108252380D01*
X165547619Y-108252380D01*
X165642857Y-108204761D01*
X165690476Y-108157142D01*
X165738095Y-108061904D01*
X165738095Y-107966666D01*
X165690476Y-107871428D01*
X165642857Y-107823809D01*
X165547619Y-107776190D01*
X165357142Y-107728571D01*
X165261904Y-107680952D01*
X165214285Y-107633333D01*
X165166666Y-107538095D01*
X165166666Y-107442857D01*
X165214285Y-107347619D01*
X165261904Y-107300000D01*
X165357142Y-107252380D01*
X165595238Y-107252380D01*
X165738095Y-107300000D01*
X166071428Y-107252380D02*
X166309523Y-108252380D01*
X166500000Y-107538095D01*
X166690476Y-108252380D01*
X166928571Y-107252380D01*
X167214285Y-107252380D02*
X167833333Y-107252380D01*
X167500000Y-107633333D01*
X167642857Y-107633333D01*
X167738095Y-107680952D01*
X167785714Y-107728571D01*
X167833333Y-107823809D01*
X167833333Y-108061904D01*
X167785714Y-108157142D01*
X167738095Y-108204761D01*
X167642857Y-108252380D01*
X167357142Y-108252380D01*
X167261904Y-108204761D01*
X167214285Y-108157142D01*
%TO.C,SW1*%
X157949761Y-126823333D02*
X157997380Y-126680476D01*
X157997380Y-126442380D01*
X157949761Y-126347142D01*
X157902142Y-126299523D01*
X157806904Y-126251904D01*
X157711666Y-126251904D01*
X157616428Y-126299523D01*
X157568809Y-126347142D01*
X157521190Y-126442380D01*
X157473571Y-126632857D01*
X157425952Y-126728095D01*
X157378333Y-126775714D01*
X157283095Y-126823333D01*
X157187857Y-126823333D01*
X157092619Y-126775714D01*
X157045000Y-126728095D01*
X156997380Y-126632857D01*
X156997380Y-126394761D01*
X157045000Y-126251904D01*
X156997380Y-125918571D02*
X157997380Y-125680476D01*
X157283095Y-125490000D01*
X157997380Y-125299523D01*
X156997380Y-125061428D01*
X157997380Y-124156666D02*
X157997380Y-124728095D01*
X157997380Y-124442380D02*
X156997380Y-124442380D01*
X157140238Y-124537619D01*
X157235476Y-124632857D01*
X157283095Y-124728095D01*
%TO.C,C10*%
X149157142Y-64357142D02*
X149109523Y-64404761D01*
X148966666Y-64452380D01*
X148871428Y-64452380D01*
X148728571Y-64404761D01*
X148633333Y-64309523D01*
X148585714Y-64214285D01*
X148538095Y-64023809D01*
X148538095Y-63880952D01*
X148585714Y-63690476D01*
X148633333Y-63595238D01*
X148728571Y-63500000D01*
X148871428Y-63452380D01*
X148966666Y-63452380D01*
X149109523Y-63500000D01*
X149157142Y-63547619D01*
X150109523Y-64452380D02*
X149538095Y-64452380D01*
X149823809Y-64452380D02*
X149823809Y-63452380D01*
X149728571Y-63595238D01*
X149633333Y-63690476D01*
X149538095Y-63738095D01*
X150728571Y-63452380D02*
X150823809Y-63452380D01*
X150919047Y-63500000D01*
X150966666Y-63547619D01*
X151014285Y-63642857D01*
X151061904Y-63833333D01*
X151061904Y-64071428D01*
X151014285Y-64261904D01*
X150966666Y-64357142D01*
X150919047Y-64404761D01*
X150823809Y-64452380D01*
X150728571Y-64452380D01*
X150633333Y-64404761D01*
X150585714Y-64357142D01*
X150538095Y-64261904D01*
X150490476Y-64071428D01*
X150490476Y-63833333D01*
X150538095Y-63642857D01*
X150585714Y-63547619D01*
X150633333Y-63500000D01*
X150728571Y-63452380D01*
%TO.C,C3*%
X196833333Y-84057142D02*
X196785714Y-84104761D01*
X196642857Y-84152380D01*
X196547619Y-84152380D01*
X196404761Y-84104761D01*
X196309523Y-84009523D01*
X196261904Y-83914285D01*
X196214285Y-83723809D01*
X196214285Y-83580952D01*
X196261904Y-83390476D01*
X196309523Y-83295238D01*
X196404761Y-83200000D01*
X196547619Y-83152380D01*
X196642857Y-83152380D01*
X196785714Y-83200000D01*
X196833333Y-83247619D01*
X197166666Y-83152380D02*
X197785714Y-83152380D01*
X197452380Y-83533333D01*
X197595238Y-83533333D01*
X197690476Y-83580952D01*
X197738095Y-83628571D01*
X197785714Y-83723809D01*
X197785714Y-83961904D01*
X197738095Y-84057142D01*
X197690476Y-84104761D01*
X197595238Y-84152380D01*
X197309523Y-84152380D01*
X197214285Y-84104761D01*
X197166666Y-84057142D01*
%TO.C,H4*%
X196238095Y-127352380D02*
X196238095Y-126352380D01*
X196238095Y-126828571D02*
X196809523Y-126828571D01*
X196809523Y-127352380D02*
X196809523Y-126352380D01*
X197714285Y-126685714D02*
X197714285Y-127352380D01*
X197476190Y-126304761D02*
X197238095Y-127019047D01*
X197857142Y-127019047D01*
%TO.C,SW2*%
X136466666Y-108304761D02*
X136609523Y-108352380D01*
X136847619Y-108352380D01*
X136942857Y-108304761D01*
X136990476Y-108257142D01*
X137038095Y-108161904D01*
X137038095Y-108066666D01*
X136990476Y-107971428D01*
X136942857Y-107923809D01*
X136847619Y-107876190D01*
X136657142Y-107828571D01*
X136561904Y-107780952D01*
X136514285Y-107733333D01*
X136466666Y-107638095D01*
X136466666Y-107542857D01*
X136514285Y-107447619D01*
X136561904Y-107400000D01*
X136657142Y-107352380D01*
X136895238Y-107352380D01*
X137038095Y-107400000D01*
X137371428Y-107352380D02*
X137609523Y-108352380D01*
X137800000Y-107638095D01*
X137990476Y-108352380D01*
X138228571Y-107352380D01*
X138561904Y-107447619D02*
X138609523Y-107400000D01*
X138704761Y-107352380D01*
X138942857Y-107352380D01*
X139038095Y-107400000D01*
X139085714Y-107447619D01*
X139133333Y-107542857D01*
X139133333Y-107638095D01*
X139085714Y-107780952D01*
X138514285Y-108352380D01*
X139133333Y-108352380D01*
%TO.C,C13*%
X129057142Y-102542857D02*
X129104761Y-102590476D01*
X129152380Y-102733333D01*
X129152380Y-102828571D01*
X129104761Y-102971428D01*
X129009523Y-103066666D01*
X128914285Y-103114285D01*
X128723809Y-103161904D01*
X128580952Y-103161904D01*
X128390476Y-103114285D01*
X128295238Y-103066666D01*
X128200000Y-102971428D01*
X128152380Y-102828571D01*
X128152380Y-102733333D01*
X128200000Y-102590476D01*
X128247619Y-102542857D01*
X129152380Y-101590476D02*
X129152380Y-102161904D01*
X129152380Y-101876190D02*
X128152380Y-101876190D01*
X128295238Y-101971428D01*
X128390476Y-102066666D01*
X128438095Y-102161904D01*
X128152380Y-101257142D02*
X128152380Y-100638095D01*
X128533333Y-100971428D01*
X128533333Y-100828571D01*
X128580952Y-100733333D01*
X128628571Y-100685714D01*
X128723809Y-100638095D01*
X128961904Y-100638095D01*
X129057142Y-100685714D01*
X129104761Y-100733333D01*
X129152380Y-100828571D01*
X129152380Y-101114285D01*
X129104761Y-101209523D01*
X129057142Y-101257142D01*
%TO.C,R7*%
X151833333Y-120052380D02*
X151500000Y-119576190D01*
X151261904Y-120052380D02*
X151261904Y-119052380D01*
X151642857Y-119052380D01*
X151738095Y-119100000D01*
X151785714Y-119147619D01*
X151833333Y-119242857D01*
X151833333Y-119385714D01*
X151785714Y-119480952D01*
X151738095Y-119528571D01*
X151642857Y-119576190D01*
X151261904Y-119576190D01*
X152166666Y-119052380D02*
X152833333Y-119052380D01*
X152404761Y-120052380D01*
%TO.C,R6*%
X148833333Y-120052380D02*
X148500000Y-119576190D01*
X148261904Y-120052380D02*
X148261904Y-119052380D01*
X148642857Y-119052380D01*
X148738095Y-119100000D01*
X148785714Y-119147619D01*
X148833333Y-119242857D01*
X148833333Y-119385714D01*
X148785714Y-119480952D01*
X148738095Y-119528571D01*
X148642857Y-119576190D01*
X148261904Y-119576190D01*
X149690476Y-119052380D02*
X149500000Y-119052380D01*
X149404761Y-119100000D01*
X149357142Y-119147619D01*
X149261904Y-119290476D01*
X149214285Y-119480952D01*
X149214285Y-119861904D01*
X149261904Y-119957142D01*
X149309523Y-120004761D01*
X149404761Y-120052380D01*
X149595238Y-120052380D01*
X149690476Y-120004761D01*
X149738095Y-119957142D01*
X149785714Y-119861904D01*
X149785714Y-119623809D01*
X149738095Y-119528571D01*
X149690476Y-119480952D01*
X149595238Y-119433333D01*
X149404761Y-119433333D01*
X149309523Y-119480952D01*
X149261904Y-119528571D01*
X149214285Y-119623809D01*
%TO.C,J1*%
X136246666Y-65552380D02*
X136246666Y-66266666D01*
X136199047Y-66409523D01*
X136103809Y-66504761D01*
X135960952Y-66552380D01*
X135865714Y-66552380D01*
X137246666Y-66552380D02*
X136675238Y-66552380D01*
X136960952Y-66552380D02*
X136960952Y-65552380D01*
X136865714Y-65695238D01*
X136770476Y-65790476D01*
X136675238Y-65838095D01*
%TO.C,U5*%
X131402380Y-99861904D02*
X132211904Y-99861904D01*
X132307142Y-99814285D01*
X132354761Y-99766666D01*
X132402380Y-99671428D01*
X132402380Y-99480952D01*
X132354761Y-99385714D01*
X132307142Y-99338095D01*
X132211904Y-99290476D01*
X131402380Y-99290476D01*
X131402380Y-98338095D02*
X131402380Y-98814285D01*
X131878571Y-98861904D01*
X131830952Y-98814285D01*
X131783333Y-98719047D01*
X131783333Y-98480952D01*
X131830952Y-98385714D01*
X131878571Y-98338095D01*
X131973809Y-98290476D01*
X132211904Y-98290476D01*
X132307142Y-98338095D01*
X132354761Y-98385714D01*
X132402380Y-98480952D01*
X132402380Y-98719047D01*
X132354761Y-98814285D01*
X132307142Y-98861904D01*
%TO.C,D9*%
X171252380Y-70138095D02*
X170252380Y-70138095D01*
X170252380Y-69900000D01*
X170300000Y-69757142D01*
X170395238Y-69661904D01*
X170490476Y-69614285D01*
X170680952Y-69566666D01*
X170823809Y-69566666D01*
X171014285Y-69614285D01*
X171109523Y-69661904D01*
X171204761Y-69757142D01*
X171252380Y-69900000D01*
X171252380Y-70138095D01*
X171252380Y-69090476D02*
X171252380Y-68900000D01*
X171204761Y-68804761D01*
X171157142Y-68757142D01*
X171014285Y-68661904D01*
X170823809Y-68614285D01*
X170442857Y-68614285D01*
X170347619Y-68661904D01*
X170300000Y-68709523D01*
X170252380Y-68804761D01*
X170252380Y-68995238D01*
X170300000Y-69090476D01*
X170347619Y-69138095D01*
X170442857Y-69185714D01*
X170680952Y-69185714D01*
X170776190Y-69138095D01*
X170823809Y-69090476D01*
X170871428Y-68995238D01*
X170871428Y-68804761D01*
X170823809Y-68709523D01*
X170776190Y-68661904D01*
X170680952Y-68614285D01*
%TO.C,RV2*%
X196802380Y-116795238D02*
X196326190Y-117128571D01*
X196802380Y-117366666D02*
X195802380Y-117366666D01*
X195802380Y-116985714D01*
X195850000Y-116890476D01*
X195897619Y-116842857D01*
X195992857Y-116795238D01*
X196135714Y-116795238D01*
X196230952Y-116842857D01*
X196278571Y-116890476D01*
X196326190Y-116985714D01*
X196326190Y-117366666D01*
X195802380Y-116509523D02*
X196802380Y-116176190D01*
X195802380Y-115842857D01*
X195897619Y-115557142D02*
X195850000Y-115509523D01*
X195802380Y-115414285D01*
X195802380Y-115176190D01*
X195850000Y-115080952D01*
X195897619Y-115033333D01*
X195992857Y-114985714D01*
X196088095Y-114985714D01*
X196230952Y-115033333D01*
X196802380Y-115604761D01*
X196802380Y-114985714D01*
%TO.C,R10*%
X176957142Y-95352380D02*
X176623809Y-94876190D01*
X176385714Y-95352380D02*
X176385714Y-94352380D01*
X176766666Y-94352380D01*
X176861904Y-94400000D01*
X176909523Y-94447619D01*
X176957142Y-94542857D01*
X176957142Y-94685714D01*
X176909523Y-94780952D01*
X176861904Y-94828571D01*
X176766666Y-94876190D01*
X176385714Y-94876190D01*
X177909523Y-95352380D02*
X177338095Y-95352380D01*
X177623809Y-95352380D02*
X177623809Y-94352380D01*
X177528571Y-94495238D01*
X177433333Y-94590476D01*
X177338095Y-94638095D01*
X178528571Y-94352380D02*
X178623809Y-94352380D01*
X178719047Y-94400000D01*
X178766666Y-94447619D01*
X178814285Y-94542857D01*
X178861904Y-94733333D01*
X178861904Y-94971428D01*
X178814285Y-95161904D01*
X178766666Y-95257142D01*
X178719047Y-95304761D01*
X178623809Y-95352380D01*
X178528571Y-95352380D01*
X178433333Y-95304761D01*
X178385714Y-95257142D01*
X178338095Y-95161904D01*
X178290476Y-94971428D01*
X178290476Y-94733333D01*
X178338095Y-94542857D01*
X178385714Y-94447619D01*
X178433333Y-94400000D01*
X178528571Y-94352380D01*
%TO.C,D6*%
X148261904Y-121452380D02*
X148261904Y-120452380D01*
X148500000Y-120452380D01*
X148642857Y-120500000D01*
X148738095Y-120595238D01*
X148785714Y-120690476D01*
X148833333Y-120880952D01*
X148833333Y-121023809D01*
X148785714Y-121214285D01*
X148738095Y-121309523D01*
X148642857Y-121404761D01*
X148500000Y-121452380D01*
X148261904Y-121452380D01*
X149690476Y-120452380D02*
X149500000Y-120452380D01*
X149404761Y-120500000D01*
X149357142Y-120547619D01*
X149261904Y-120690476D01*
X149214285Y-120880952D01*
X149214285Y-121261904D01*
X149261904Y-121357142D01*
X149309523Y-121404761D01*
X149404761Y-121452380D01*
X149595238Y-121452380D01*
X149690476Y-121404761D01*
X149738095Y-121357142D01*
X149785714Y-121261904D01*
X149785714Y-121023809D01*
X149738095Y-120928571D01*
X149690476Y-120880952D01*
X149595238Y-120833333D01*
X149404761Y-120833333D01*
X149309523Y-120880952D01*
X149261904Y-120928571D01*
X149214285Y-121023809D01*
%TO.C,R29*%
X183952380Y-78442857D02*
X183476190Y-78776190D01*
X183952380Y-79014285D02*
X182952380Y-79014285D01*
X182952380Y-78633333D01*
X183000000Y-78538095D01*
X183047619Y-78490476D01*
X183142857Y-78442857D01*
X183285714Y-78442857D01*
X183380952Y-78490476D01*
X183428571Y-78538095D01*
X183476190Y-78633333D01*
X183476190Y-79014285D01*
X183047619Y-78061904D02*
X183000000Y-78014285D01*
X182952380Y-77919047D01*
X182952380Y-77680952D01*
X183000000Y-77585714D01*
X183047619Y-77538095D01*
X183142857Y-77490476D01*
X183238095Y-77490476D01*
X183380952Y-77538095D01*
X183952380Y-78109523D01*
X183952380Y-77490476D01*
X183952380Y-77014285D02*
X183952380Y-76823809D01*
X183904761Y-76728571D01*
X183857142Y-76680952D01*
X183714285Y-76585714D01*
X183523809Y-76538095D01*
X183142857Y-76538095D01*
X183047619Y-76585714D01*
X183000000Y-76633333D01*
X182952380Y-76728571D01*
X182952380Y-76919047D01*
X183000000Y-77014285D01*
X183047619Y-77061904D01*
X183142857Y-77109523D01*
X183380952Y-77109523D01*
X183476190Y-77061904D01*
X183523809Y-77014285D01*
X183571428Y-76919047D01*
X183571428Y-76728571D01*
X183523809Y-76633333D01*
X183476190Y-76585714D01*
X183380952Y-76538095D01*
%TO.C,SW4*%
X150766666Y-106204761D02*
X150909523Y-106252380D01*
X151147619Y-106252380D01*
X151242857Y-106204761D01*
X151290476Y-106157142D01*
X151338095Y-106061904D01*
X151338095Y-105966666D01*
X151290476Y-105871428D01*
X151242857Y-105823809D01*
X151147619Y-105776190D01*
X150957142Y-105728571D01*
X150861904Y-105680952D01*
X150814285Y-105633333D01*
X150766666Y-105538095D01*
X150766666Y-105442857D01*
X150814285Y-105347619D01*
X150861904Y-105300000D01*
X150957142Y-105252380D01*
X151195238Y-105252380D01*
X151338095Y-105300000D01*
X151671428Y-105252380D02*
X151909523Y-106252380D01*
X152100000Y-105538095D01*
X152290476Y-106252380D01*
X152528571Y-105252380D01*
X153338095Y-105585714D02*
X153338095Y-106252380D01*
X153100000Y-105204761D02*
X152861904Y-105919047D01*
X153480952Y-105919047D01*
%TO.C,H3*%
X196238095Y-60452380D02*
X196238095Y-59452380D01*
X196238095Y-59928571D02*
X196809523Y-59928571D01*
X196809523Y-60452380D02*
X196809523Y-59452380D01*
X197190476Y-59452380D02*
X197809523Y-59452380D01*
X197476190Y-59833333D01*
X197619047Y-59833333D01*
X197714285Y-59880952D01*
X197761904Y-59928571D01*
X197809523Y-60023809D01*
X197809523Y-60261904D01*
X197761904Y-60357142D01*
X197714285Y-60404761D01*
X197619047Y-60452380D01*
X197333333Y-60452380D01*
X197238095Y-60404761D01*
X197190476Y-60357142D01*
%TO.C,C7*%
X116833333Y-86057142D02*
X116785714Y-86104761D01*
X116642857Y-86152380D01*
X116547619Y-86152380D01*
X116404761Y-86104761D01*
X116309523Y-86009523D01*
X116261904Y-85914285D01*
X116214285Y-85723809D01*
X116214285Y-85580952D01*
X116261904Y-85390476D01*
X116309523Y-85295238D01*
X116404761Y-85200000D01*
X116547619Y-85152380D01*
X116642857Y-85152380D01*
X116785714Y-85200000D01*
X116833333Y-85247619D01*
X117166666Y-85152380D02*
X117833333Y-85152380D01*
X117404761Y-86152380D01*
%TO.C,D8*%
X110111904Y-78452380D02*
X110111904Y-77452380D01*
X110350000Y-77452380D01*
X110492857Y-77500000D01*
X110588095Y-77595238D01*
X110635714Y-77690476D01*
X110683333Y-77880952D01*
X110683333Y-78023809D01*
X110635714Y-78214285D01*
X110588095Y-78309523D01*
X110492857Y-78404761D01*
X110350000Y-78452380D01*
X110111904Y-78452380D01*
X111254761Y-77880952D02*
X111159523Y-77833333D01*
X111111904Y-77785714D01*
X111064285Y-77690476D01*
X111064285Y-77642857D01*
X111111904Y-77547619D01*
X111159523Y-77500000D01*
X111254761Y-77452380D01*
X111445238Y-77452380D01*
X111540476Y-77500000D01*
X111588095Y-77547619D01*
X111635714Y-77642857D01*
X111635714Y-77690476D01*
X111588095Y-77785714D01*
X111540476Y-77833333D01*
X111445238Y-77880952D01*
X111254761Y-77880952D01*
X111159523Y-77928571D01*
X111111904Y-77976190D01*
X111064285Y-78071428D01*
X111064285Y-78261904D01*
X111111904Y-78357142D01*
X111159523Y-78404761D01*
X111254761Y-78452380D01*
X111445238Y-78452380D01*
X111540476Y-78404761D01*
X111588095Y-78357142D01*
X111635714Y-78261904D01*
X111635714Y-78071428D01*
X111588095Y-77976190D01*
X111540476Y-77928571D01*
X111445238Y-77880952D01*
%TO.C,R24*%
X181852380Y-71442857D02*
X181376190Y-71776190D01*
X181852380Y-72014285D02*
X180852380Y-72014285D01*
X180852380Y-71633333D01*
X180900000Y-71538095D01*
X180947619Y-71490476D01*
X181042857Y-71442857D01*
X181185714Y-71442857D01*
X181280952Y-71490476D01*
X181328571Y-71538095D01*
X181376190Y-71633333D01*
X181376190Y-72014285D01*
X180947619Y-71061904D02*
X180900000Y-71014285D01*
X180852380Y-70919047D01*
X180852380Y-70680952D01*
X180900000Y-70585714D01*
X180947619Y-70538095D01*
X181042857Y-70490476D01*
X181138095Y-70490476D01*
X181280952Y-70538095D01*
X181852380Y-71109523D01*
X181852380Y-70490476D01*
X181185714Y-69633333D02*
X181852380Y-69633333D01*
X180804761Y-69871428D02*
X181519047Y-70109523D01*
X181519047Y-69490476D01*
%TO.C,R18*%
X193737142Y-76752380D02*
X193403809Y-76276190D01*
X193165714Y-76752380D02*
X193165714Y-75752380D01*
X193546666Y-75752380D01*
X193641904Y-75800000D01*
X193689523Y-75847619D01*
X193737142Y-75942857D01*
X193737142Y-76085714D01*
X193689523Y-76180952D01*
X193641904Y-76228571D01*
X193546666Y-76276190D01*
X193165714Y-76276190D01*
X194689523Y-76752380D02*
X194118095Y-76752380D01*
X194403809Y-76752380D02*
X194403809Y-75752380D01*
X194308571Y-75895238D01*
X194213333Y-75990476D01*
X194118095Y-76038095D01*
X195260952Y-76180952D02*
X195165714Y-76133333D01*
X195118095Y-76085714D01*
X195070476Y-75990476D01*
X195070476Y-75942857D01*
X195118095Y-75847619D01*
X195165714Y-75800000D01*
X195260952Y-75752380D01*
X195451428Y-75752380D01*
X195546666Y-75800000D01*
X195594285Y-75847619D01*
X195641904Y-75942857D01*
X195641904Y-75990476D01*
X195594285Y-76085714D01*
X195546666Y-76133333D01*
X195451428Y-76180952D01*
X195260952Y-76180952D01*
X195165714Y-76228571D01*
X195118095Y-76276190D01*
X195070476Y-76371428D01*
X195070476Y-76561904D01*
X195118095Y-76657142D01*
X195165714Y-76704761D01*
X195260952Y-76752380D01*
X195451428Y-76752380D01*
X195546666Y-76704761D01*
X195594285Y-76657142D01*
X195641904Y-76561904D01*
X195641904Y-76371428D01*
X195594285Y-76276190D01*
X195546666Y-76228571D01*
X195451428Y-76180952D01*
%TO.C,R9*%
X194233333Y-67452380D02*
X193900000Y-66976190D01*
X193661904Y-67452380D02*
X193661904Y-66452380D01*
X194042857Y-66452380D01*
X194138095Y-66500000D01*
X194185714Y-66547619D01*
X194233333Y-66642857D01*
X194233333Y-66785714D01*
X194185714Y-66880952D01*
X194138095Y-66928571D01*
X194042857Y-66976190D01*
X193661904Y-66976190D01*
X194709523Y-67452380D02*
X194900000Y-67452380D01*
X194995238Y-67404761D01*
X195042857Y-67357142D01*
X195138095Y-67214285D01*
X195185714Y-67023809D01*
X195185714Y-66642857D01*
X195138095Y-66547619D01*
X195090476Y-66500000D01*
X194995238Y-66452380D01*
X194804761Y-66452380D01*
X194709523Y-66500000D01*
X194661904Y-66547619D01*
X194614285Y-66642857D01*
X194614285Y-66880952D01*
X194661904Y-66976190D01*
X194709523Y-67023809D01*
X194804761Y-67071428D01*
X194995238Y-67071428D01*
X195090476Y-67023809D01*
X195138095Y-66976190D01*
X195185714Y-66880952D01*
%TO.C,R11*%
X176957142Y-91452380D02*
X176623809Y-90976190D01*
X176385714Y-91452380D02*
X176385714Y-90452380D01*
X176766666Y-90452380D01*
X176861904Y-90500000D01*
X176909523Y-90547619D01*
X176957142Y-90642857D01*
X176957142Y-90785714D01*
X176909523Y-90880952D01*
X176861904Y-90928571D01*
X176766666Y-90976190D01*
X176385714Y-90976190D01*
X177909523Y-91452380D02*
X177338095Y-91452380D01*
X177623809Y-91452380D02*
X177623809Y-90452380D01*
X177528571Y-90595238D01*
X177433333Y-90690476D01*
X177338095Y-90738095D01*
X178861904Y-91452380D02*
X178290476Y-91452380D01*
X178576190Y-91452380D02*
X178576190Y-90452380D01*
X178480952Y-90595238D01*
X178385714Y-90690476D01*
X178290476Y-90738095D01*
%TO.C,RV1*%
X123402380Y-116795238D02*
X122926190Y-117128571D01*
X123402380Y-117366666D02*
X122402380Y-117366666D01*
X122402380Y-116985714D01*
X122450000Y-116890476D01*
X122497619Y-116842857D01*
X122592857Y-116795238D01*
X122735714Y-116795238D01*
X122830952Y-116842857D01*
X122878571Y-116890476D01*
X122926190Y-116985714D01*
X122926190Y-117366666D01*
X122402380Y-116509523D02*
X123402380Y-116176190D01*
X122402380Y-115842857D01*
X123402380Y-114985714D02*
X123402380Y-115557142D01*
X123402380Y-115271428D02*
X122402380Y-115271428D01*
X122545238Y-115366666D01*
X122640476Y-115461904D01*
X122688095Y-115557142D01*
%TO.C,R8*%
X118683333Y-78452380D02*
X118350000Y-77976190D01*
X118111904Y-78452380D02*
X118111904Y-77452380D01*
X118492857Y-77452380D01*
X118588095Y-77500000D01*
X118635714Y-77547619D01*
X118683333Y-77642857D01*
X118683333Y-77785714D01*
X118635714Y-77880952D01*
X118588095Y-77928571D01*
X118492857Y-77976190D01*
X118111904Y-77976190D01*
X119254761Y-77880952D02*
X119159523Y-77833333D01*
X119111904Y-77785714D01*
X119064285Y-77690476D01*
X119064285Y-77642857D01*
X119111904Y-77547619D01*
X119159523Y-77500000D01*
X119254761Y-77452380D01*
X119445238Y-77452380D01*
X119540476Y-77500000D01*
X119588095Y-77547619D01*
X119635714Y-77642857D01*
X119635714Y-77690476D01*
X119588095Y-77785714D01*
X119540476Y-77833333D01*
X119445238Y-77880952D01*
X119254761Y-77880952D01*
X119159523Y-77928571D01*
X119111904Y-77976190D01*
X119064285Y-78071428D01*
X119064285Y-78261904D01*
X119111904Y-78357142D01*
X119159523Y-78404761D01*
X119254761Y-78452380D01*
X119445238Y-78452380D01*
X119540476Y-78404761D01*
X119588095Y-78357142D01*
X119635714Y-78261904D01*
X119635714Y-78071428D01*
X119588095Y-77976190D01*
X119540476Y-77928571D01*
X119445238Y-77880952D01*
%TO.C,D12*%
X171252380Y-59914285D02*
X170252380Y-59914285D01*
X170252380Y-59676190D01*
X170300000Y-59533333D01*
X170395238Y-59438095D01*
X170490476Y-59390476D01*
X170680952Y-59342857D01*
X170823809Y-59342857D01*
X171014285Y-59390476D01*
X171109523Y-59438095D01*
X171204761Y-59533333D01*
X171252380Y-59676190D01*
X171252380Y-59914285D01*
X171252380Y-58390476D02*
X171252380Y-58961904D01*
X171252380Y-58676190D02*
X170252380Y-58676190D01*
X170395238Y-58771428D01*
X170490476Y-58866666D01*
X170538095Y-58961904D01*
X170347619Y-58009523D02*
X170300000Y-57961904D01*
X170252380Y-57866666D01*
X170252380Y-57628571D01*
X170300000Y-57533333D01*
X170347619Y-57485714D01*
X170442857Y-57438095D01*
X170538095Y-57438095D01*
X170680952Y-57485714D01*
X171252380Y-58057142D01*
X171252380Y-57438095D01*
%TO.C,R20*%
X172557142Y-91502380D02*
X172223809Y-91026190D01*
X171985714Y-91502380D02*
X171985714Y-90502380D01*
X172366666Y-90502380D01*
X172461904Y-90550000D01*
X172509523Y-90597619D01*
X172557142Y-90692857D01*
X172557142Y-90835714D01*
X172509523Y-90930952D01*
X172461904Y-90978571D01*
X172366666Y-91026190D01*
X171985714Y-91026190D01*
X172938095Y-90597619D02*
X172985714Y-90550000D01*
X173080952Y-90502380D01*
X173319047Y-90502380D01*
X173414285Y-90550000D01*
X173461904Y-90597619D01*
X173509523Y-90692857D01*
X173509523Y-90788095D01*
X173461904Y-90930952D01*
X172890476Y-91502380D01*
X173509523Y-91502380D01*
X174128571Y-90502380D02*
X174223809Y-90502380D01*
X174319047Y-90550000D01*
X174366666Y-90597619D01*
X174414285Y-90692857D01*
X174461904Y-90883333D01*
X174461904Y-91121428D01*
X174414285Y-91311904D01*
X174366666Y-91407142D01*
X174319047Y-91454761D01*
X174223809Y-91502380D01*
X174128571Y-91502380D01*
X174033333Y-91454761D01*
X173985714Y-91407142D01*
X173938095Y-91311904D01*
X173890476Y-91121428D01*
X173890476Y-90883333D01*
X173938095Y-90692857D01*
X173985714Y-90597619D01*
X174033333Y-90550000D01*
X174128571Y-90502380D01*
%TO.C,U2*%
X193838095Y-96352380D02*
X193838095Y-97161904D01*
X193885714Y-97257142D01*
X193933333Y-97304761D01*
X194028571Y-97352380D01*
X194219047Y-97352380D01*
X194314285Y-97304761D01*
X194361904Y-97257142D01*
X194409523Y-97161904D01*
X194409523Y-96352380D01*
X194838095Y-96447619D02*
X194885714Y-96400000D01*
X194980952Y-96352380D01*
X195219047Y-96352380D01*
X195314285Y-96400000D01*
X195361904Y-96447619D01*
X195409523Y-96542857D01*
X195409523Y-96638095D01*
X195361904Y-96780952D01*
X194790476Y-97352380D01*
X195409523Y-97352380D01*
D12*
%TO.C,TP15*%
X200700000Y-102500000D02*
G75*
G03*
X200700000Y-102500000I-1200000J0D01*
G01*
%TO.C,TP14*%
X109300000Y-96800000D02*
G75*
G03*
X109300000Y-96800000I-1200000J0D01*
G01*
%TO.C,TP13*%
X109300000Y-100100000D02*
G75*
G03*
X109300000Y-100100000I-1200000J0D01*
G01*
%TO.C,TP12*%
X151300000Y-67300000D02*
G75*
G03*
X151300000Y-67300000I-1200000J0D01*
G01*
%TO.C,TP11*%
X109300000Y-93500000D02*
G75*
G03*
X109300000Y-93500000I-1200000J0D01*
G01*
%TO.C,TP10*%
X197100000Y-98800000D02*
G75*
G03*
X197100000Y-98800000I-1200000J0D01*
G01*
%TO.C,TP9*%
X185400000Y-98900000D02*
G75*
G03*
X185400000Y-98900000I-1200000J0D01*
G01*
%TO.C,TP8*%
X200700000Y-98800000D02*
G75*
G03*
X200700000Y-98800000I-1200000J0D01*
G01*
%TO.C,TP7*%
X109400000Y-103400000D02*
G75*
G03*
X109400000Y-103400000I-1200000J0D01*
G01*
%TO.C,TP6*%
X197200000Y-102500000D02*
G75*
G03*
X197200000Y-102500000I-1200000J0D01*
G01*
%TO.C,TP5*%
X181600000Y-102500000D02*
G75*
G03*
X181600000Y-102500000I-1200000J0D01*
G01*
%TO.C,TP4*%
X181600000Y-98800000D02*
G75*
G03*
X181600000Y-98800000I-1200000J0D01*
G01*
%TO.C,TP3*%
X181500000Y-85600000D02*
G75*
G03*
X181500000Y-85600000I-1200000J0D01*
G01*
%TO.C,SW6*%
X115650000Y-57400000D02*
X115650000Y-64000000D01*
X124450000Y-64000000D02*
X111550000Y-64000000D01*
X111550000Y-57400000D02*
X124450000Y-57400000D01*
X111550000Y-64000000D02*
X111550000Y-57400000D01*
X124450000Y-57400000D02*
X124450000Y-64000000D01*
%TO.C,R2*%
X188472936Y-128335000D02*
X188927064Y-128335000D01*
X188472936Y-126865000D02*
X188927064Y-126865000D01*
%TO.C,R1*%
X115527064Y-128335000D02*
X115072936Y-128335000D01*
X115527064Y-126865000D02*
X115072936Y-126865000D01*
%TO.C,D2*%
X187015000Y-130760000D02*
X189700000Y-130760000D01*
X187015000Y-128840000D02*
X187015000Y-130760000D01*
X189700000Y-128840000D02*
X187015000Y-128840000D01*
%TO.C,D1*%
X116985000Y-128840000D02*
X114300000Y-128840000D01*
X116985000Y-130760000D02*
X116985000Y-128840000D01*
X114300000Y-130760000D02*
X116985000Y-130760000D01*
%TO.C,R17*%
X198420000Y-73200000D02*
X197650000Y-73200000D01*
X191110000Y-71830000D02*
X191110000Y-74570000D01*
X197650000Y-74570000D02*
X197650000Y-71830000D01*
X197650000Y-71830000D02*
X191110000Y-71830000D01*
X191110000Y-74570000D02*
X197650000Y-74570000D01*
X190340000Y-73200000D02*
X191110000Y-73200000D01*
%TO.C,C11*%
X189161252Y-96735000D02*
X188638748Y-96735000D01*
X189161252Y-95265000D02*
X188638748Y-95265000D01*
%TO.C,Q1*%
X184900000Y-95460000D02*
X185550000Y-95460000D01*
X184900000Y-92340000D02*
X185550000Y-92340000D01*
X184900000Y-95460000D02*
X184250000Y-95460000D01*
X184900000Y-92340000D02*
X183225000Y-92340000D01*
%TO.C,R5*%
X154265000Y-123172936D02*
X154265000Y-123627064D01*
X155735000Y-123172936D02*
X155735000Y-123627064D01*
%TO.C,C2*%
X189838748Y-108235000D02*
X190361252Y-108235000D01*
X189838748Y-106765000D02*
X190361252Y-106765000D01*
%TO.C,C5*%
X112165888Y-89440000D02*
X112165888Y-90337000D01*
X110884888Y-85857000D02*
X110884888Y-87360000D01*
X111165888Y-85920000D02*
X111165888Y-87360000D01*
X111725888Y-86153000D02*
X111725888Y-87360000D01*
X111245888Y-85945000D02*
X111245888Y-87360000D01*
X112045888Y-86365000D02*
X112045888Y-87360000D01*
X111525888Y-86052000D02*
X111525888Y-87360000D01*
X111885888Y-89440000D02*
X111885888Y-90549000D01*
X111285888Y-89440000D02*
X111285888Y-90842000D01*
X112805888Y-87302000D02*
X112805888Y-89498000D01*
X112645888Y-89440000D02*
X112645888Y-89783000D01*
X111405888Y-89440000D02*
X111405888Y-90798000D01*
X111485888Y-86035000D02*
X111485888Y-87360000D01*
X112605888Y-86957000D02*
X112605888Y-87360000D01*
X111645888Y-89440000D02*
X111645888Y-90690000D01*
X112365888Y-86657000D02*
X112365888Y-87360000D01*
X110524888Y-85821000D02*
X110524888Y-90979000D01*
X111925888Y-89440000D02*
X111925888Y-90522000D01*
X111565888Y-86071000D02*
X111565888Y-87360000D01*
X111605888Y-89440000D02*
X111605888Y-90710000D01*
X112285888Y-89440000D02*
X112285888Y-90226000D01*
X112765888Y-87222000D02*
X112765888Y-89578000D01*
X111685888Y-86132000D02*
X111685888Y-87360000D01*
X111485888Y-89440000D02*
X111485888Y-90765000D01*
X111325888Y-85972000D02*
X111325888Y-87360000D01*
X111285888Y-85958000D02*
X111285888Y-87360000D01*
X112405888Y-89440000D02*
X112405888Y-90099000D01*
X111885888Y-86251000D02*
X111885888Y-87360000D01*
X111645888Y-86110000D02*
X111645888Y-87360000D01*
X112525888Y-89440000D02*
X112525888Y-89954000D01*
X111044888Y-89440000D02*
X111044888Y-90911000D01*
X112005888Y-89440000D02*
X112005888Y-90465000D01*
X112085888Y-86396000D02*
X112085888Y-87360000D01*
X110564888Y-85822000D02*
X110564888Y-90978000D01*
X111765888Y-89440000D02*
X111765888Y-90624000D01*
X110764888Y-89440000D02*
X110764888Y-90961000D01*
X110884888Y-89440000D02*
X110884888Y-90943000D01*
X112005888Y-86335000D02*
X112005888Y-87360000D01*
X112205888Y-86499000D02*
X112205888Y-87360000D01*
X111925888Y-86278000D02*
X111925888Y-87360000D01*
X110804888Y-89440000D02*
X110804888Y-90956000D01*
X111004888Y-85880000D02*
X111004888Y-87360000D01*
X110964888Y-89440000D02*
X110964888Y-90928000D01*
X112165888Y-86463000D02*
X112165888Y-87360000D01*
X110444888Y-85820000D02*
X110444888Y-90980000D01*
X112485888Y-89440000D02*
X112485888Y-90005000D01*
X107890113Y-86675000D02*
X107890113Y-87175000D01*
X112325888Y-89440000D02*
X112325888Y-90185000D01*
X111365888Y-89440000D02*
X111365888Y-90814000D01*
X112845888Y-87389000D02*
X112845888Y-89411000D01*
X107640113Y-86925000D02*
X108140113Y-86925000D01*
X112245888Y-89440000D02*
X112245888Y-90264000D01*
X111205888Y-85932000D02*
X111205888Y-87360000D01*
X112205888Y-89440000D02*
X112205888Y-90301000D01*
X112405888Y-86701000D02*
X112405888Y-87360000D01*
X112245888Y-86536000D02*
X112245888Y-87360000D01*
X110924888Y-89440000D02*
X110924888Y-90936000D01*
X110604888Y-85824000D02*
X110604888Y-90976000D01*
X111525888Y-89440000D02*
X111525888Y-90748000D01*
X112045888Y-89440000D02*
X112045888Y-90435000D01*
X112125888Y-89440000D02*
X112125888Y-90371000D01*
X111084888Y-89440000D02*
X111084888Y-90901000D01*
X112725888Y-89440000D02*
X112725888Y-89651000D01*
X112605888Y-89440000D02*
X112605888Y-89843000D01*
X111004888Y-89440000D02*
X111004888Y-90920000D01*
X112965888Y-87723000D02*
X112965888Y-89077000D01*
X110964888Y-85872000D02*
X110964888Y-87360000D01*
X112925888Y-87595000D02*
X112925888Y-89205000D01*
X112485888Y-86795000D02*
X112485888Y-87360000D01*
X112125888Y-86429000D02*
X112125888Y-87360000D01*
X112365888Y-89440000D02*
X112365888Y-90143000D01*
X112565888Y-86900000D02*
X112565888Y-87360000D01*
X112445888Y-86747000D02*
X112445888Y-87360000D01*
X110684888Y-89440000D02*
X110684888Y-90969000D01*
X111405888Y-86002000D02*
X111405888Y-87360000D01*
X112685888Y-87081000D02*
X112685888Y-87360000D01*
X111765888Y-86176000D02*
X111765888Y-87360000D01*
X111084888Y-85899000D02*
X111084888Y-87360000D01*
X111325888Y-89440000D02*
X111325888Y-90828000D01*
X112725888Y-87149000D02*
X112725888Y-87360000D01*
X111725888Y-89440000D02*
X111725888Y-90647000D01*
X112285888Y-86574000D02*
X112285888Y-87360000D01*
X110844888Y-85850000D02*
X110844888Y-87360000D01*
X111445888Y-89440000D02*
X111445888Y-90782000D01*
X111165888Y-89440000D02*
X111165888Y-90880000D01*
X111685888Y-89440000D02*
X111685888Y-90668000D01*
X112885888Y-87485000D02*
X112885888Y-89315000D01*
X111965888Y-86305000D02*
X111965888Y-87360000D01*
X111445888Y-86018000D02*
X111445888Y-87360000D01*
X111605888Y-86090000D02*
X111605888Y-87360000D01*
X110844888Y-89440000D02*
X110844888Y-90950000D01*
X112645888Y-87017000D02*
X112645888Y-87360000D01*
X111565888Y-89440000D02*
X111565888Y-90729000D01*
X111845888Y-89440000D02*
X111845888Y-90575000D01*
X113005888Y-87882000D02*
X113005888Y-88918000D01*
X111845888Y-86225000D02*
X111845888Y-87360000D01*
X113045888Y-88116000D02*
X113045888Y-88684000D01*
X112445888Y-89440000D02*
X112445888Y-90053000D01*
X111205888Y-89440000D02*
X111205888Y-90868000D01*
X110724888Y-89440000D02*
X110724888Y-90965000D01*
X110924888Y-85864000D02*
X110924888Y-87360000D01*
X111805888Y-86200000D02*
X111805888Y-87360000D01*
X111365888Y-85986000D02*
X111365888Y-87360000D01*
X112685888Y-89440000D02*
X112685888Y-89719000D01*
X110684888Y-85831000D02*
X110684888Y-87360000D01*
X111044888Y-85889000D02*
X111044888Y-87360000D01*
X110644888Y-85827000D02*
X110644888Y-90973000D01*
X111124888Y-89440000D02*
X111124888Y-90891000D01*
X111245888Y-89440000D02*
X111245888Y-90855000D01*
X111124888Y-85909000D02*
X111124888Y-87360000D01*
X112525888Y-86846000D02*
X112525888Y-87360000D01*
X110724888Y-85835000D02*
X110724888Y-87360000D01*
X110804888Y-85844000D02*
X110804888Y-87360000D01*
X110484888Y-85820000D02*
X110484888Y-90980000D01*
X112085888Y-89440000D02*
X112085888Y-90404000D01*
X111965888Y-89440000D02*
X111965888Y-90495000D01*
X112565888Y-89440000D02*
X112565888Y-89900000D01*
X112325888Y-86615000D02*
X112325888Y-87360000D01*
X111805888Y-89440000D02*
X111805888Y-90600000D01*
X110764888Y-85839000D02*
X110764888Y-87360000D01*
X113064888Y-88400000D02*
G75*
G03*
X113064888Y-88400000I-2620000J0D01*
G01*
%TO.C,R27*%
X184865000Y-81227064D02*
X184865000Y-80772936D01*
X186335000Y-81227064D02*
X186335000Y-80772936D01*
%TO.C,U3*%
X102780000Y-83916000D02*
X113020000Y-83916000D01*
X113020000Y-79275000D02*
X113020000Y-83916000D01*
X106050000Y-79275000D02*
X106050000Y-80785000D01*
X102780000Y-80785000D02*
X113020000Y-80785000D01*
X102780000Y-79275000D02*
X113020000Y-79275000D01*
X109751000Y-79275000D02*
X109751000Y-80785000D01*
X102780000Y-79275000D02*
X102780000Y-83916000D01*
%TO.C,R21*%
X175765000Y-99272936D02*
X175765000Y-99727064D01*
X177235000Y-99272936D02*
X177235000Y-99727064D01*
%TO.C,U1*%
X177255000Y-83940000D02*
X177255000Y-77860001D01*
X177255000Y-77860001D02*
X177615000Y-77860001D01*
X177615000Y-71780001D02*
X127155000Y-71780000D01*
X127155000Y-71780000D02*
X127155000Y-90019999D01*
X177615000Y-77860001D02*
X177615000Y-71780001D01*
X127155000Y-90019999D02*
X177615000Y-90020000D01*
X177615000Y-83940000D02*
X177255000Y-83940000D01*
X177615000Y-90020000D02*
X177615000Y-83940000D01*
X176235000Y-77400000D02*
X170535000Y-77400000D01*
X170535000Y-77400000D02*
X170535000Y-77900000D01*
X170535000Y-77900000D02*
X176235000Y-77900000D01*
X176235000Y-77900000D02*
X176235000Y-77400000D01*
X176235000Y-81900000D02*
X170535000Y-81900000D01*
X170535000Y-81900000D02*
X170535000Y-82400000D01*
X170535000Y-82400000D02*
X176235000Y-82400000D01*
X176235000Y-82400000D02*
X176235000Y-81900000D01*
X176235000Y-83900000D02*
X170535000Y-83900000D01*
X170535000Y-83900000D02*
X170535000Y-84400000D01*
X170535000Y-84400000D02*
X176235000Y-84400000D01*
X176235000Y-84400000D02*
X176235000Y-83900000D01*
X129185000Y-84700000D02*
X125785000Y-84700000D01*
X125785000Y-84700000D02*
X125785000Y-77100000D01*
X125785000Y-77100000D02*
X129185000Y-77100000D01*
X129185000Y-77100000D02*
X129185000Y-84700000D01*
X176235000Y-79400000D02*
X170535000Y-79400000D01*
X170535000Y-79400000D02*
X170535000Y-79900000D01*
X170535000Y-79900000D02*
X176235000Y-79900000D01*
X176235000Y-79900000D02*
X176235000Y-79400000D01*
%TO.C,U4*%
X174880000Y-98310000D02*
X174880000Y-96660000D01*
X174880000Y-96660000D02*
X164600000Y-96660000D01*
X174880000Y-101960000D02*
X174880000Y-100310000D01*
X164600000Y-96660000D02*
X164600000Y-101960000D01*
X164600000Y-101960000D02*
X174880000Y-101960000D01*
X174880000Y-98310000D02*
G75*
G03*
X174880000Y-100310000I0J-1000000D01*
G01*
%TO.C,Q6*%
X181903000Y-66987000D02*
X182238000Y-66987000D01*
X186050000Y-64227000D02*
X186050000Y-69168000D01*
X182651000Y-64227000D02*
X182651000Y-66245000D01*
X175550000Y-69168000D02*
X186050000Y-69168000D01*
X175550000Y-64227000D02*
X175550000Y-69168000D01*
X175550000Y-64227000D02*
X186050000Y-64227000D01*
X178950000Y-64227000D02*
X178950000Y-66245000D01*
X179363000Y-66987000D02*
X179698000Y-66987000D01*
X175550000Y-66987000D02*
X177157000Y-66987000D01*
X184443000Y-66987000D02*
X186050000Y-66987000D01*
%TO.C,R22*%
X180035000Y-80772936D02*
X180035000Y-81227064D01*
X178565000Y-80772936D02*
X178565000Y-81227064D01*
%TO.C,Q5*%
X178950000Y-57227000D02*
X178950000Y-59245000D01*
X175550000Y-62168000D02*
X186050000Y-62168000D01*
X182651000Y-57227000D02*
X182651000Y-59245000D01*
X175550000Y-59987000D02*
X177157000Y-59987000D01*
X186050000Y-57227000D02*
X186050000Y-62168000D01*
X181903000Y-59987000D02*
X182238000Y-59987000D01*
X179363000Y-59987000D02*
X179698000Y-59987000D01*
X175550000Y-57227000D02*
X186050000Y-57227000D01*
X184443000Y-59987000D02*
X186050000Y-59987000D01*
X175550000Y-57227000D02*
X175550000Y-62168000D01*
%TO.C,R16*%
X191110000Y-68730000D02*
X191110000Y-71470000D01*
X197650000Y-71470000D02*
X197650000Y-68730000D01*
X197650000Y-68730000D02*
X191110000Y-68730000D01*
X191110000Y-71470000D02*
X197650000Y-71470000D01*
X198420000Y-70100000D02*
X197650000Y-70100000D01*
X190340000Y-70100000D02*
X191110000Y-70100000D01*
%TO.C,R28*%
X184235000Y-74272936D02*
X184235000Y-74727064D01*
X182765000Y-74272936D02*
X182765000Y-74727064D01*
%TO.C,R25*%
X182135000Y-80772936D02*
X182135000Y-81227064D01*
X180665000Y-80772936D02*
X180665000Y-81227064D01*
%TO.C,R19*%
X197650000Y-78030000D02*
X191110000Y-78030000D01*
X198420000Y-79400000D02*
X197650000Y-79400000D01*
X191110000Y-80770000D02*
X197650000Y-80770000D01*
X191110000Y-78030000D02*
X191110000Y-80770000D01*
X190340000Y-79400000D02*
X191110000Y-79400000D01*
X197650000Y-80770000D02*
X197650000Y-78030000D01*
%TO.C,C1*%
X116638748Y-108235000D02*
X117161252Y-108235000D01*
X116638748Y-106765000D02*
X117161252Y-106765000D01*
%TO.C,D11*%
X174800000Y-62900000D02*
X174800000Y-57200000D01*
X174800000Y-57200000D02*
X171800000Y-57200000D01*
X171800000Y-57200000D02*
X171800000Y-62900000D01*
%TO.C,SW5*%
X127485000Y-120350000D02*
X127485000Y-130630000D01*
X145445000Y-128140000D02*
X145445000Y-122840000D01*
X145445000Y-122840000D02*
X127545000Y-122840000D01*
X127545000Y-128140000D02*
X145445000Y-128140000D01*
X127485000Y-130630000D02*
X145505000Y-130630000D01*
X127545000Y-126490000D02*
X127545000Y-128140000D01*
X145505000Y-130630000D02*
X145505000Y-120350000D01*
X145505000Y-120350000D02*
X127485000Y-120350000D01*
X127545000Y-122840000D02*
X127545000Y-124490000D01*
X127545000Y-126490000D02*
G75*
G03*
X127545000Y-124490000I0J1000000D01*
G01*
%TO.C,C8*%
X153065000Y-60661252D02*
X153065000Y-60138748D01*
X154535000Y-60661252D02*
X154535000Y-60138748D01*
%TO.C,R13*%
X180672936Y-88165000D02*
X181127064Y-88165000D01*
X180672936Y-89635000D02*
X181127064Y-89635000D01*
%TO.C,R15*%
X189127064Y-89165000D02*
X188672936Y-89165000D01*
X189127064Y-90635000D02*
X188672936Y-90635000D01*
%TO.C,C4*%
X172261252Y-105065000D02*
X171738748Y-105065000D01*
X172261252Y-106535000D02*
X171738748Y-106535000D01*
%TO.C,R23*%
X180035000Y-74727064D02*
X180035000Y-74272936D01*
X178565000Y-74727064D02*
X178565000Y-74272936D01*
%TO.C,C9*%
X121665000Y-82238748D02*
X121665000Y-82761252D01*
X123135000Y-82238748D02*
X123135000Y-82761252D01*
%TO.C,D10*%
X169800000Y-69900000D02*
X169800000Y-64200000D01*
X166800000Y-64200000D02*
X166800000Y-69900000D01*
X169800000Y-64200000D02*
X166800000Y-64200000D01*
%TO.C,R14*%
X189127064Y-93165000D02*
X188672936Y-93165000D01*
X189127064Y-94635000D02*
X188672936Y-94635000D01*
%TO.C,Q3*%
X155050000Y-57227000D02*
X155050000Y-62168000D01*
X161403000Y-59987000D02*
X161738000Y-59987000D01*
X165550000Y-57227000D02*
X165550000Y-62168000D01*
X162151000Y-57227000D02*
X162151000Y-59245000D01*
X158450000Y-57227000D02*
X158450000Y-59245000D01*
X163943000Y-59987000D02*
X165550000Y-59987000D01*
X155050000Y-57227000D02*
X165550000Y-57227000D01*
X155050000Y-62168000D02*
X165550000Y-62168000D01*
X155050000Y-59987000D02*
X156657000Y-59987000D01*
X158863000Y-59987000D02*
X159198000Y-59987000D01*
%TO.C,D5*%
X154040000Y-126400000D02*
X154040000Y-129085000D01*
X155960000Y-129085000D02*
X155960000Y-126400000D01*
X154040000Y-129085000D02*
X155960000Y-129085000D01*
%TO.C,R12*%
X180672936Y-92165000D02*
X181127064Y-92165000D01*
X180672936Y-93635000D02*
X181127064Y-93635000D01*
%TO.C,D7*%
X151040000Y-129085000D02*
X152960000Y-129085000D01*
X151040000Y-126400000D02*
X151040000Y-129085000D01*
X152960000Y-129085000D02*
X152960000Y-126400000D01*
%TO.C,Q4*%
X161403000Y-66987000D02*
X161738000Y-66987000D01*
X158450000Y-64227000D02*
X158450000Y-66245000D01*
X158863000Y-66987000D02*
X159198000Y-66987000D01*
X162151000Y-64227000D02*
X162151000Y-66245000D01*
X163943000Y-66987000D02*
X165550000Y-66987000D01*
X155050000Y-66987000D02*
X156657000Y-66987000D01*
X155050000Y-64227000D02*
X165550000Y-64227000D01*
X155050000Y-69168000D02*
X165550000Y-69168000D01*
X155050000Y-64227000D02*
X155050000Y-69168000D01*
X165550000Y-64227000D02*
X165550000Y-69168000D01*
%TO.C,R26*%
X186335000Y-74272936D02*
X186335000Y-74727064D01*
X184865000Y-74272936D02*
X184865000Y-74727064D01*
%TO.C,C12*%
X189161252Y-87065000D02*
X188638748Y-87065000D01*
X189161252Y-88535000D02*
X188638748Y-88535000D01*
%TO.C,C6*%
X104565000Y-88438748D02*
X104565000Y-88961252D01*
X106035000Y-88438748D02*
X106035000Y-88961252D01*
%TO.C,Q2*%
X184900000Y-91460000D02*
X184250000Y-91460000D01*
X184900000Y-91460000D02*
X185550000Y-91460000D01*
X184900000Y-88340000D02*
X185550000Y-88340000D01*
X184900000Y-88340000D02*
X183225000Y-88340000D01*
%TO.C,SW3*%
X168750000Y-109250000D02*
X164250000Y-109250000D01*
X163000000Y-111750000D02*
X163000000Y-113250000D01*
X170000000Y-113250000D02*
X170000000Y-111750000D01*
X164250000Y-115750000D02*
X168750000Y-115750000D01*
%TO.C,SW1*%
X176445000Y-128140000D02*
X176445000Y-122840000D01*
X176445000Y-122840000D02*
X158545000Y-122840000D01*
X176505000Y-130630000D02*
X176505000Y-120350000D01*
X158545000Y-128140000D02*
X176445000Y-128140000D01*
X158485000Y-130630000D02*
X176505000Y-130630000D01*
X158545000Y-122840000D02*
X158545000Y-124490000D01*
X176505000Y-120350000D02*
X158485000Y-120350000D01*
X158545000Y-126490000D02*
X158545000Y-128140000D01*
X158485000Y-120350000D02*
X158485000Y-130630000D01*
X158545000Y-126490000D02*
G75*
G03*
X158545000Y-124490000I0J1000000D01*
G01*
%TO.C,C10*%
X148860000Y-61465888D02*
X147486000Y-61465888D01*
X152428000Y-61064888D02*
X150940000Y-61064888D01*
X152314000Y-61465888D02*
X150940000Y-61465888D01*
X148860000Y-61425888D02*
X147472000Y-61425888D01*
X151764000Y-62345888D02*
X150940000Y-62345888D01*
X148860000Y-61905888D02*
X147700000Y-61905888D01*
X152265000Y-61585888D02*
X150940000Y-61585888D01*
X152328000Y-61425888D02*
X150940000Y-61425888D01*
X148860000Y-62705888D02*
X148457000Y-62705888D01*
X152450000Y-60944888D02*
X150940000Y-60944888D01*
X151400000Y-62665888D02*
X150940000Y-62665888D01*
X152478000Y-60664888D02*
X147322000Y-60664888D01*
X151904000Y-62185888D02*
X150940000Y-62185888D01*
X148860000Y-60984888D02*
X147357000Y-60984888D01*
X148860000Y-62385888D02*
X148074000Y-62385888D01*
X148860000Y-60784888D02*
X147331000Y-60784888D01*
X152355000Y-61345888D02*
X150940000Y-61345888D01*
X148860000Y-61985888D02*
X147751000Y-61985888D01*
X148860000Y-61505888D02*
X147502000Y-61505888D01*
X151454000Y-62625888D02*
X150940000Y-62625888D01*
X148860000Y-62505888D02*
X148201000Y-62505888D01*
X148860000Y-61224888D02*
X147409000Y-61224888D01*
X152022000Y-62025888D02*
X150940000Y-62025888D01*
X148860000Y-62625888D02*
X148346000Y-62625888D01*
X148860000Y-62225888D02*
X147929000Y-62225888D01*
X152476000Y-60704888D02*
X147324000Y-60704888D01*
X150418000Y-63105888D02*
X149382000Y-63105888D01*
X151219000Y-62785888D02*
X150940000Y-62785888D01*
X148860000Y-62425888D02*
X148115000Y-62425888D01*
X152456000Y-60904888D02*
X150940000Y-60904888D01*
X151726000Y-62385888D02*
X150940000Y-62385888D01*
X152380000Y-61265888D02*
X150940000Y-61265888D01*
X148860000Y-61024888D02*
X147364000Y-61024888D01*
X152100000Y-61905888D02*
X150940000Y-61905888D01*
X150815000Y-62985888D02*
X148985000Y-62985888D01*
X148860000Y-62465888D02*
X148157000Y-62465888D01*
X148860000Y-61104888D02*
X147380000Y-61104888D01*
X152210000Y-61705888D02*
X150940000Y-61705888D01*
X150998000Y-62905888D02*
X148802000Y-62905888D01*
X151801000Y-62305888D02*
X150940000Y-62305888D01*
X152248000Y-61625888D02*
X150940000Y-61625888D01*
X152420000Y-61104888D02*
X150940000Y-61104888D01*
X150577000Y-63065888D02*
X149223000Y-63065888D01*
X148860000Y-61745888D02*
X147610000Y-61745888D01*
X152168000Y-61785888D02*
X150940000Y-61785888D01*
X148860000Y-62145888D02*
X147865000Y-62145888D01*
X148860000Y-61865888D02*
X147676000Y-61865888D01*
X151685000Y-62425888D02*
X150940000Y-62425888D01*
X152282000Y-61545888D02*
X150940000Y-61545888D01*
X152368000Y-61305888D02*
X150940000Y-61305888D01*
X152147000Y-61825888D02*
X150940000Y-61825888D01*
X151837000Y-62265888D02*
X150940000Y-62265888D01*
X152075000Y-61945888D02*
X150940000Y-61945888D01*
X148860000Y-61825888D02*
X147653000Y-61825888D01*
X148860000Y-61184888D02*
X147399000Y-61184888D01*
X148860000Y-61385888D02*
X147458000Y-61385888D01*
X148860000Y-62105888D02*
X147835000Y-62105888D01*
X152461000Y-60864888D02*
X150940000Y-60864888D01*
X148860000Y-61064888D02*
X147372000Y-61064888D01*
X152401000Y-61184888D02*
X150940000Y-61184888D01*
X148860000Y-62665888D02*
X148400000Y-62665888D01*
X150911000Y-62945888D02*
X148889000Y-62945888D01*
X152049000Y-61985888D02*
X150940000Y-61985888D01*
X151995000Y-62065888D02*
X150940000Y-62065888D01*
X148860000Y-61305888D02*
X147432000Y-61305888D01*
X148860000Y-62745888D02*
X148517000Y-62745888D01*
X152479000Y-60624888D02*
X147321000Y-60624888D01*
X148860000Y-61945888D02*
X147725000Y-61945888D01*
X148860000Y-61785888D02*
X147632000Y-61785888D01*
X152411000Y-61144888D02*
X150940000Y-61144888D01*
X148860000Y-61545888D02*
X147518000Y-61545888D01*
X151625000Y-57990113D02*
X151125000Y-57990113D01*
X151599000Y-62505888D02*
X150940000Y-62505888D01*
X151078000Y-62865888D02*
X148722000Y-62865888D01*
X148860000Y-61265888D02*
X147420000Y-61265888D01*
X152443000Y-60984888D02*
X150940000Y-60984888D01*
X148860000Y-61705888D02*
X147590000Y-61705888D01*
X148860000Y-62025888D02*
X147778000Y-62025888D01*
X151505000Y-62585888D02*
X150940000Y-62585888D01*
X148860000Y-62065888D02*
X147805000Y-62065888D01*
X151553000Y-62545888D02*
X150940000Y-62545888D01*
X150184000Y-63145888D02*
X149616000Y-63145888D01*
X152229000Y-61665888D02*
X150940000Y-61665888D01*
X148860000Y-61665888D02*
X147571000Y-61665888D01*
X150705000Y-63025888D02*
X149095000Y-63025888D01*
X148860000Y-61144888D02*
X147389000Y-61144888D01*
X152298000Y-61505888D02*
X150940000Y-61505888D01*
X148860000Y-61345888D02*
X147445000Y-61345888D01*
X148860000Y-60864888D02*
X147339000Y-60864888D01*
X151965000Y-62105888D02*
X150940000Y-62105888D01*
X151343000Y-62705888D02*
X150940000Y-62705888D01*
X148860000Y-62585888D02*
X148295000Y-62585888D01*
X148860000Y-62265888D02*
X147963000Y-62265888D01*
X152469000Y-60784888D02*
X150940000Y-60784888D01*
X152480000Y-60544888D02*
X147320000Y-60544888D01*
X148860000Y-62785888D02*
X148581000Y-62785888D01*
X152436000Y-61024888D02*
X150940000Y-61024888D01*
X148860000Y-62545888D02*
X148247000Y-62545888D01*
X151935000Y-62145888D02*
X150940000Y-62145888D01*
X152473000Y-60744888D02*
X147327000Y-60744888D01*
X151643000Y-62465888D02*
X150940000Y-62465888D01*
X152342000Y-61385888D02*
X150940000Y-61385888D01*
X148860000Y-62305888D02*
X147999000Y-62305888D01*
X152480000Y-60584888D02*
X147320000Y-60584888D01*
X151283000Y-62745888D02*
X150940000Y-62745888D01*
X152391000Y-61224888D02*
X150940000Y-61224888D01*
X148860000Y-61585888D02*
X147535000Y-61585888D01*
X148860000Y-62825888D02*
X148649000Y-62825888D01*
X148860000Y-62185888D02*
X147896000Y-62185888D01*
X148860000Y-60824888D02*
X147335000Y-60824888D01*
X152465000Y-60824888D02*
X150940000Y-60824888D01*
X151151000Y-62825888D02*
X150940000Y-62825888D01*
X148860000Y-60904888D02*
X147344000Y-60904888D01*
X148860000Y-61625888D02*
X147552000Y-61625888D01*
X148860000Y-60944888D02*
X147350000Y-60944888D01*
X152190000Y-61745888D02*
X150940000Y-61745888D01*
X148860000Y-62345888D02*
X148036000Y-62345888D01*
X151871000Y-62225888D02*
X150940000Y-62225888D01*
X152124000Y-61865888D02*
X150940000Y-61865888D01*
X151375000Y-57740113D02*
X151375000Y-58240113D01*
X152520000Y-60544888D02*
G75*
G03*
X152520000Y-60544888I-2620000J0D01*
G01*
%TO.C,C3*%
X196661252Y-84765000D02*
X196138748Y-84765000D01*
X196661252Y-86235000D02*
X196138748Y-86235000D01*
%TO.C,SW2*%
X135250000Y-115750000D02*
X139750000Y-115750000D01*
X141000000Y-113250000D02*
X141000000Y-111750000D01*
X139750000Y-109250000D02*
X135250000Y-109250000D01*
X134000000Y-111750000D02*
X134000000Y-113250000D01*
%TO.C,C13*%
X129865000Y-101638748D02*
X129865000Y-102161252D01*
X131335000Y-101638748D02*
X131335000Y-102161252D01*
%TO.C,R7*%
X151265000Y-123172936D02*
X151265000Y-123627064D01*
X152735000Y-123172936D02*
X152735000Y-123627064D01*
%TO.C,R6*%
X148265000Y-123172936D02*
X148265000Y-123627064D01*
X149735000Y-123172936D02*
X149735000Y-123627064D01*
%TO.C,J1*%
X126440000Y-57190000D02*
X126440000Y-64810000D01*
X146760000Y-64810000D02*
X146760000Y-57190000D01*
X126440000Y-64810000D02*
X146760000Y-64810000D01*
X146760000Y-63540000D02*
X126440000Y-63540000D01*
X126440000Y-57190000D02*
X146760000Y-57190000D01*
%TO.C,U5*%
X170950000Y-94190000D02*
X170950000Y-104010000D01*
X132950000Y-94190000D02*
X170950000Y-94190000D01*
X170950000Y-104010000D02*
X132950000Y-104010000D01*
X132950000Y-104010000D02*
X132950000Y-94190000D01*
X135950000Y-96560000D02*
X132950000Y-96560000D01*
%TO.C,D9*%
X166800000Y-57300000D02*
X166800000Y-63000000D01*
X169800000Y-63000000D02*
X169800000Y-57300000D01*
X169800000Y-57300000D02*
X166800000Y-57300000D01*
%TO.C,RV2*%
X193670000Y-111030000D02*
X192071000Y-111030000D01*
X193670000Y-119405000D02*
X193670000Y-123270000D01*
X193670000Y-123270000D02*
X183730000Y-123270000D01*
X183730000Y-111030000D02*
X183730000Y-114895000D01*
X185330000Y-111030000D02*
X183730000Y-111030000D01*
X193670000Y-111030000D02*
X193670000Y-114895000D01*
X190329000Y-111030000D02*
X189570000Y-111030000D01*
X183730000Y-119405000D02*
X183730000Y-123270000D01*
X187829000Y-111030000D02*
X187070000Y-111030000D01*
%TO.C,R10*%
X180672936Y-95635000D02*
X181127064Y-95635000D01*
X180672936Y-94165000D02*
X181127064Y-94165000D01*
%TO.C,D6*%
X148040000Y-126337500D02*
X148040000Y-129022500D01*
X148040000Y-129022500D02*
X149960000Y-129022500D01*
X149960000Y-129022500D02*
X149960000Y-126337500D01*
%TO.C,R29*%
X182765000Y-80772936D02*
X182765000Y-81227064D01*
X184235000Y-80772936D02*
X184235000Y-81227064D01*
%TO.C,SW4*%
X145050000Y-106795000D02*
X158950000Y-106795000D01*
X158950000Y-106795000D02*
X158950000Y-118295000D01*
X158950000Y-118295000D02*
X145050000Y-118295000D01*
X145050000Y-118295000D02*
X145050000Y-106795000D01*
%TO.C,C7*%
X115960000Y-84125888D02*
X115446000Y-84125888D01*
X119290000Y-83245888D02*
X118040000Y-83245888D01*
X115960000Y-83525888D02*
X114878000Y-83525888D01*
X119491000Y-82724888D02*
X118040000Y-82724888D01*
X115960000Y-82925888D02*
X114572000Y-82925888D01*
X118383000Y-84245888D02*
X118040000Y-84245888D01*
X118937000Y-83765888D02*
X118040000Y-83765888D01*
X115960000Y-83365888D02*
X114776000Y-83365888D01*
X119247000Y-83325888D02*
X118040000Y-83325888D01*
X119580000Y-82044888D02*
X114420000Y-82044888D01*
X115960000Y-83885888D02*
X115174000Y-83885888D01*
X119576000Y-82204888D02*
X114424000Y-82204888D01*
X115960000Y-82524888D02*
X114464000Y-82524888D01*
X115960000Y-83645888D02*
X114965000Y-83645888D01*
X115960000Y-84045888D02*
X115347000Y-84045888D01*
X117915000Y-84485888D02*
X116085000Y-84485888D01*
X115960000Y-84165888D02*
X115500000Y-84165888D01*
X119579000Y-82124888D02*
X114421000Y-82124888D01*
X115960000Y-83805888D02*
X115099000Y-83805888D01*
X115960000Y-82604888D02*
X114480000Y-82604888D01*
X118319000Y-84285888D02*
X118040000Y-84285888D01*
X119004000Y-83685888D02*
X118040000Y-83685888D01*
X117284000Y-84645888D02*
X116716000Y-84645888D01*
X119175000Y-83445888D02*
X118040000Y-83445888D01*
X115960000Y-82845888D02*
X114545000Y-82845888D01*
X115960000Y-83605888D02*
X114935000Y-83605888D01*
X115960000Y-84245888D02*
X115617000Y-84245888D01*
X119095000Y-83565888D02*
X118040000Y-83565888D01*
X119268000Y-83285888D02*
X118040000Y-83285888D01*
X117677000Y-84565888D02*
X116323000Y-84565888D01*
X115960000Y-82724888D02*
X114509000Y-82724888D01*
X119149000Y-83485888D02*
X118040000Y-83485888D01*
X119065000Y-83605888D02*
X118040000Y-83605888D01*
X115960000Y-83925888D02*
X115215000Y-83925888D01*
X118743000Y-83965888D02*
X118040000Y-83965888D01*
X115960000Y-82644888D02*
X114489000Y-82644888D01*
X115960000Y-84285888D02*
X115681000Y-84285888D01*
X119122000Y-83525888D02*
X118040000Y-83525888D01*
X118785000Y-83925888D02*
X118040000Y-83925888D01*
X118864000Y-83845888D02*
X118040000Y-83845888D01*
X115960000Y-84085888D02*
X115395000Y-84085888D01*
X118178000Y-84365888D02*
X115822000Y-84365888D01*
X115960000Y-83325888D02*
X114753000Y-83325888D01*
X115960000Y-83205888D02*
X114690000Y-83205888D01*
X119536000Y-82524888D02*
X118040000Y-82524888D01*
X118605000Y-84085888D02*
X118040000Y-84085888D01*
X115960000Y-83165888D02*
X114671000Y-83165888D01*
X119556000Y-82404888D02*
X118040000Y-82404888D01*
X118901000Y-83805888D02*
X118040000Y-83805888D01*
X119428000Y-82925888D02*
X118040000Y-82925888D01*
X115960000Y-83765888D02*
X115063000Y-83765888D01*
X119365000Y-83085888D02*
X118040000Y-83085888D01*
X115960000Y-84005888D02*
X115301000Y-84005888D01*
X118971000Y-83725888D02*
X118040000Y-83725888D01*
X118443000Y-84205888D02*
X118040000Y-84205888D01*
X115960000Y-84325888D02*
X115749000Y-84325888D01*
X119578000Y-82164888D02*
X114422000Y-82164888D01*
X115960000Y-82284888D02*
X114431000Y-82284888D01*
X119543000Y-82484888D02*
X118040000Y-82484888D01*
X118011000Y-84445888D02*
X115989000Y-84445888D01*
X118699000Y-84005888D02*
X118040000Y-84005888D01*
X119414000Y-82965888D02*
X118040000Y-82965888D01*
X119224000Y-83365888D02*
X118040000Y-83365888D01*
X118554000Y-84125888D02*
X118040000Y-84125888D01*
X115960000Y-83045888D02*
X114618000Y-83045888D01*
X115960000Y-82965888D02*
X114586000Y-82965888D01*
X119468000Y-82805888D02*
X118040000Y-82805888D01*
X115960000Y-84205888D02*
X115557000Y-84205888D01*
X118826000Y-83885888D02*
X118040000Y-83885888D01*
X119442000Y-82885888D02*
X118040000Y-82885888D01*
X119550000Y-82444888D02*
X118040000Y-82444888D01*
X117518000Y-84605888D02*
X116482000Y-84605888D01*
X119398000Y-83005888D02*
X118040000Y-83005888D01*
X119310000Y-83205888D02*
X118040000Y-83205888D01*
X115960000Y-83725888D02*
X115029000Y-83725888D01*
X119200000Y-83405888D02*
X118040000Y-83405888D01*
X119455000Y-82845888D02*
X118040000Y-82845888D01*
X115960000Y-83125888D02*
X114652000Y-83125888D01*
X119520000Y-82604888D02*
X118040000Y-82604888D01*
X117805000Y-84525888D02*
X116195000Y-84525888D01*
X115960000Y-83445888D02*
X114825000Y-83445888D01*
X115960000Y-83965888D02*
X115257000Y-83965888D01*
X115960000Y-82364888D02*
X114439000Y-82364888D01*
X115960000Y-83685888D02*
X114996000Y-83685888D01*
X115960000Y-83405888D02*
X114800000Y-83405888D01*
X115960000Y-82324888D02*
X114435000Y-82324888D01*
X119580000Y-82084888D02*
X114420000Y-82084888D01*
X115960000Y-82765888D02*
X114520000Y-82765888D01*
X118500000Y-84165888D02*
X118040000Y-84165888D01*
X118098000Y-84405888D02*
X115902000Y-84405888D01*
X115960000Y-83245888D02*
X114710000Y-83245888D01*
X115960000Y-83005888D02*
X114602000Y-83005888D01*
X119501000Y-82684888D02*
X118040000Y-82684888D01*
X115960000Y-83565888D02*
X114905000Y-83565888D01*
X115960000Y-82684888D02*
X114499000Y-82684888D01*
X119565000Y-82324888D02*
X118040000Y-82324888D01*
X118475000Y-79240113D02*
X118475000Y-79740113D01*
X115960000Y-82484888D02*
X114457000Y-82484888D01*
X119511000Y-82644888D02*
X118040000Y-82644888D01*
X119573000Y-82244888D02*
X114427000Y-82244888D01*
X119528000Y-82564888D02*
X118040000Y-82564888D01*
X115960000Y-82805888D02*
X114532000Y-82805888D01*
X115960000Y-82444888D02*
X114450000Y-82444888D01*
X115960000Y-82885888D02*
X114558000Y-82885888D01*
X119035000Y-83645888D02*
X118040000Y-83645888D01*
X119561000Y-82364888D02*
X118040000Y-82364888D01*
X115960000Y-82404888D02*
X114444000Y-82404888D01*
X119569000Y-82284888D02*
X118040000Y-82284888D01*
X115960000Y-83285888D02*
X114732000Y-83285888D01*
X115960000Y-83085888D02*
X114635000Y-83085888D01*
X115960000Y-83845888D02*
X115136000Y-83845888D01*
X115960000Y-82564888D02*
X114472000Y-82564888D01*
X118653000Y-84045888D02*
X118040000Y-84045888D01*
X119382000Y-83045888D02*
X118040000Y-83045888D01*
X119480000Y-82765888D02*
X118040000Y-82765888D01*
X119329000Y-83165888D02*
X118040000Y-83165888D01*
X119348000Y-83125888D02*
X118040000Y-83125888D01*
X118725000Y-79490113D02*
X118225000Y-79490113D01*
X115960000Y-83485888D02*
X114851000Y-83485888D01*
X118251000Y-84325888D02*
X118040000Y-84325888D01*
X119620000Y-82044888D02*
G75*
G03*
X119620000Y-82044888I-2620000J0D01*
G01*
%TO.C,D8*%
X109165000Y-75340000D02*
X109165000Y-77260000D01*
X109165000Y-77260000D02*
X111850000Y-77260000D01*
X111850000Y-75340000D02*
X109165000Y-75340000D01*
%TO.C,R24*%
X180665000Y-74727064D02*
X180665000Y-74272936D01*
X182135000Y-74727064D02*
X182135000Y-74272936D01*
%TO.C,R18*%
X197650000Y-77670000D02*
X197650000Y-74930000D01*
X190340000Y-76300000D02*
X191110000Y-76300000D01*
X191110000Y-77670000D02*
X197650000Y-77670000D01*
X198420000Y-76300000D02*
X197650000Y-76300000D01*
X197650000Y-74930000D02*
X191110000Y-74930000D01*
X191110000Y-74930000D02*
X191110000Y-77670000D01*
%TO.C,R9*%
X191110000Y-65630000D02*
X191110000Y-68370000D01*
X197650000Y-65630000D02*
X191110000Y-65630000D01*
X198420000Y-67000000D02*
X197650000Y-67000000D01*
X191110000Y-68370000D02*
X197650000Y-68370000D01*
X190340000Y-67000000D02*
X191110000Y-67000000D01*
X197650000Y-68370000D02*
X197650000Y-65630000D01*
%TO.C,R11*%
X180672936Y-90165000D02*
X181127064Y-90165000D01*
X180672936Y-91635000D02*
X181127064Y-91635000D01*
%TO.C,RV1*%
X120270000Y-111030000D02*
X118671000Y-111030000D01*
X116929000Y-111030000D02*
X116170000Y-111030000D01*
X111930000Y-111030000D02*
X110330000Y-111030000D01*
X114429000Y-111030000D02*
X113670000Y-111030000D01*
X120270000Y-111030000D02*
X120270000Y-114895000D01*
X110330000Y-119405000D02*
X110330000Y-123270000D01*
X120270000Y-123270000D02*
X110330000Y-123270000D01*
X120270000Y-119405000D02*
X120270000Y-123270000D01*
X110330000Y-111030000D02*
X110330000Y-114895000D01*
%TO.C,R8*%
X119077064Y-75565000D02*
X118622936Y-75565000D01*
X119077064Y-77035000D02*
X118622936Y-77035000D01*
%TO.C,D12*%
X174800000Y-69900000D02*
X174800000Y-64200000D01*
X174800000Y-64200000D02*
X171800000Y-64200000D01*
X171800000Y-64200000D02*
X171800000Y-69900000D01*
%TO.C,R20*%
X172972936Y-93435000D02*
X173427064Y-93435000D01*
X172972936Y-91965000D02*
X173427064Y-91965000D01*
%TO.C,U2*%
X196000000Y-96035000D02*
X197950000Y-96035000D01*
X196000000Y-87165000D02*
X197950000Y-87165000D01*
X196000000Y-96035000D02*
X194050000Y-96035000D01*
X196000000Y-87165000D02*
X192550000Y-87165000D01*
%TD*%
M02*
